<svg xmlns="http://www.w3.org/2000/svg" viewBox="0 0 2200 300"><defs><style>[id^="layer-"]{fill: #fff;opacity: 0.2}.accent{fill: #0ff;opacity: 0.2}
</style></defs><g id="layer" data-svg-origin="642.6599731445312 55.72999572753906" transform="matrix(1,0,0,1,0,0)" style="visibility: inherit; opacity: 1;"><circle class="accent" cx="667.31" cy="80.38" r="24.65"></circle><circle class="accent" cx="669.37" cy="80.38" r="24.65"></circle><circle class="accent" cx="671.42" cy="80.38" r="24.65"></circle><circle class="accent" cx="673.48" cy="80.38" r="24.65"></circle><circle class="accent" cx="675.53" cy="80.38" r="24.65"></circle><circle class="accent" cx="677.59" cy="80.38" r="24.65"></circle><circle class="accent" cx="679.64" cy="80.38" r="24.65"></circle><circle class="accent" cx="681.69" cy="80.38" r="24.65"></circle><circle class="accent" cx="683.75" cy="80.38" r="24.65"></circle><circle class="accent" cx="685.8" cy="80.38" r="24.65"></circle></g><g id="layer-1" data-svg-origin="203.47097778320312 1.6300010681152344" transform="matrix(1,0,0,1,0,0)" style="visibility: inherit; opacity: 0.2;"><path class="a" d="M302.08,51.39A98.61,98.61,0,1,0,353.57,234.1a24.65,24.65,0,0,0,47.11-10.15V150A98.61,98.61,0,0,0,302.08,51.39Zm0,147.91a49.3,49.3,0,1,1,49.3-49.3A49.31,49.31,0,0,1,302.08,199.3Z"></path><path class="a" d="M786.66,51.39A98.61,98.61,0,1,0,885.27,150,98.61,98.61,0,0,0,786.66,51.39Zm0,147.91A49.3,49.3,0,1,1,836,150,49.3,49.3,0,0,1,786.66,199.3Z"></path><path class="a" d="M1096.17,76v74A98.61,98.61,0,0,1,899,150V76a24.65,24.65,0,0,1,49.3,0v74a49.3,49.3,0,1,0,98.61,0V76a24.67,24.67,0,0,1,24.65-24.65A24.65,24.65,0,0,1,1096.17,76Z"></path><path class="a" d="M1767.13,150v74a24.65,24.65,0,0,1-49.3,0V150a49.3,49.3,0,0,0-98.61,0v74a24.65,24.65,0,1,1-49.3,0V150A98.61,98.61,0,0,1,1767.13,150Z"></path><path class="a" d="M1493.22,150v74a24.65,24.65,0,1,1-49.3,0V150a49.29,49.29,0,0,0-98.58-.93h0v75a24.65,24.65,0,1,1-49.3,0V26.52a24.65,24.65,0,0,1,49.3,0v38.1A98.58,98.58,0,0,1,1493.22,150Z"></path><rect class="a" x="1506.92" y="50.94" width="49.3" height="197.78" rx="24.65" ry="24.65"></rect><path class="a" d="M1282.32,205.25a24.71,24.71,0,0,1-10.18,20,98.61,98.61,0,1,1-.59-151,24.76,24.76,0,0,1-14.09,45,24.41,24.41,0,0,1-17.13-7l-0.05,0a49.3,49.3,0,1,0,.55,74.86h0A24.64,24.64,0,0,1,1282.32,205.25Z"></path><circle class="a" cx="1531.57" cy="26.28" r="24.65"></circle><path class="a" d="M562.06,80.12a24.66,24.66,0,0,1-33.51,23,0.18,0.18,0,0,0,0,.08A49.29,49.29,0,0,0,463.68,150v74a24.65,24.65,0,1,1-49.3,0V150a98.55,98.55,0,0,1,129-93.77A24.63,24.63,0,0,1,562.06,80.12Z"></path><path class="a" d="M699,223.95a24.65,24.65,0,0,1-24.65,24.65h-1.27a98,98,0,0,1-48-13.22v0.05A98.58,98.58,0,0,1,575.75,150V26.63a24.65,24.65,0,1,1,49.3,0V150.38h0a49.28,49.28,0,0,0,48.51,48.91,0,0,0,0,1,0,0h0.77A24.65,24.65,0,0,1,699,223.95Z"></path><path class="a" d="M1879.43,51.39a98.61,98.61,0,1,0,27.87,193.2c-3.46,2.37-11.24,5.82-11.24,5.82a25,25,0,0,0-16.63,23.31,24.65,24.65,0,0,0,24.65,24.65,24.33,24.33,0,0,0,9.85-2.05,98.66,98.66,0,0,0,64-88.8H1978V150A98.61,98.61,0,0,0,1879.43,51.39Zm0,147.91a49.3,49.3,0,1,1,49.3-49.3A49.31,49.31,0,0,1,1879.43,199.3Z"></path></g><g id="layer-2" data-svg-origin="205.53097534179688 1.6300010681152344" transform="matrix(1,0,0,1,0,0)" style="visibility: inherit; opacity: 0.2;"><path class="a" d="M304.13,51.39A98.61,98.61,0,1,0,355.63,234.1a24.65,24.65,0,0,0,47.11-10.15V150A98.61,98.61,0,0,0,304.13,51.39Zm0,147.91a49.3,49.3,0,1,1,49.3-49.3A49.31,49.31,0,0,1,304.13,199.3Z"></path><path class="a" d="M788.71,51.39A98.61,98.61,0,1,0,887.32,150,98.61,98.61,0,0,0,788.71,51.39Zm0,147.91A49.3,49.3,0,1,1,838,150,49.3,49.3,0,0,1,788.71,199.3Z"></path><path class="a" d="M1098.23,76v74A98.61,98.61,0,1,1,901,150V76a24.65,24.65,0,0,1,49.3,0v74a49.3,49.3,0,1,0,98.61,0V76a24.67,24.67,0,0,1,24.65-24.65A24.65,24.65,0,0,1,1098.23,76Z"></path><path class="a" d="M1769.18,150v74a24.65,24.65,0,0,1-49.3,0V150a49.3,49.3,0,1,0-98.61,0v74a24.65,24.65,0,0,1-49.3,0V150A98.61,98.61,0,1,1,1769.18,150Z"></path><path class="a" d="M1495.28,150v74a24.65,24.65,0,0,1-49.3,0V150a49.29,49.29,0,0,0-98.58-.93h0v75a24.65,24.65,0,1,1-49.3,0V26.52a24.65,24.65,0,0,1,49.3,0v38.1A98.58,98.58,0,0,1,1495.28,150Z"></path><rect class="a" x="1508.98" y="50.94" width="49.3" height="197.78" rx="24.65" ry="24.65"></rect><path class="a" d="M1284.37,205.25a24.71,24.71,0,0,1-10.18,20,98.61,98.61,0,1,1-.59-151,24.76,24.76,0,0,1-14.09,45,24.41,24.41,0,0,1-17.13-7l-0.05,0a49.3,49.3,0,1,0,.55,74.86h0A24.64,24.64,0,0,1,1284.37,205.25Z"></path><circle class="a" cx="1533.63" cy="26.28" r="24.65"></circle><path class="a" d="M564.11,80.12a24.66,24.66,0,0,1-33.51,23,0.18,0.18,0,0,0,0,.08A49.29,49.29,0,0,0,465.74,150v74a24.65,24.65,0,0,1-49.3,0V150a98.55,98.55,0,0,1,129-93.77A24.63,24.63,0,0,1,564.11,80.12Z"></path><path class="a" d="M701.06,223.95a24.65,24.65,0,0,1-24.65,24.65h-1.27a98,98,0,0,1-48-13.22v0.05A98.58,98.58,0,0,1,577.81,150V26.63a24.65,24.65,0,1,1,49.3,0V150.38h0a49.28,49.28,0,0,0,48.51,48.91,0,0,0,0,1,0,0h0.77A24.65,24.65,0,0,1,701.06,223.95Z"></path><path class="a" d="M1881.49,51.39a98.61,98.61,0,1,0,27.87,193.2c-3.46,2.37-11.24,5.82-11.24,5.82a25,25,0,0,0-16.63,23.31,24.65,24.65,0,0,0,24.65,24.65,24.33,24.33,0,0,0,9.85-2.05,98.66,98.66,0,0,0,64-88.8h0.07V150A98.61,98.61,0,0,0,1881.49,51.39Zm0,147.91a49.3,49.3,0,1,1,49.3-49.3A49.31,49.31,0,0,1,1881.49,199.3Z"></path></g><g id="layer-3" data-svg-origin="207.5809326171875 1.6300010681152344" transform="matrix(1,0,0,1,0,0)" style="visibility: inherit; opacity: 0.2;"><path class="a" d="M306.19,51.39A98.61,98.61,0,1,0,357.68,234.1a24.65,24.65,0,0,0,47.11-10.15V150A98.61,98.61,0,0,0,306.19,51.39Zm0,147.91a49.3,49.3,0,1,1,49.3-49.3A49.31,49.31,0,0,1,306.19,199.3Z"></path><path class="a" d="M790.77,51.39A98.61,98.61,0,1,0,889.37,150,98.61,98.61,0,0,0,790.77,51.39Zm0,147.91a49.3,49.3,0,1,1,49.3-49.3A49.3,49.3,0,0,1,790.77,199.3Z"></path><path class="a" d="M1100.28,76v74a98.61,98.61,0,0,1-197.21,0V76a24.65,24.65,0,0,1,49.3,0v74a49.3,49.3,0,0,0,98.61,0V76a24.67,24.67,0,0,1,24.65-24.65A24.65,24.65,0,0,1,1100.28,76Z"></path><path class="a" d="M1771.24,150v74a24.65,24.65,0,0,1-49.3,0V150a49.3,49.3,0,0,0-98.61,0v74a24.65,24.65,0,0,1-49.3,0V150A98.61,98.61,0,1,1,1771.24,150Z"></path><path class="a" d="M1497.33,150v74a24.65,24.65,0,0,1-49.3,0V150a49.29,49.29,0,0,0-98.58-.93h0v75a24.65,24.65,0,1,1-49.3,0V26.52a24.65,24.65,0,0,1,49.3,0v38.1A98.58,98.58,0,0,1,1497.33,150Z"></path><rect class="a" x="1511.03" y="50.94" width="49.3" height="197.78" rx="24.65" ry="24.65"></rect><path class="a" d="M1286.43,205.25a24.71,24.71,0,0,1-10.18,20,98.61,98.61,0,1,1-.59-151,24.76,24.76,0,0,1-14.09,45,24.41,24.41,0,0,1-17.13-7l-0.05,0a49.3,49.3,0,1,0,.55,74.86h0A24.64,24.64,0,0,1,1286.43,205.25Z"></path><circle class="a" cx="1535.68" cy="26.28" r="24.65"></circle><path class="a" d="M566.16,80.12a24.66,24.66,0,0,1-33.51,23,0.18,0.18,0,0,0,0,.08A49.29,49.29,0,0,0,467.79,150v74a24.65,24.65,0,1,1-49.3,0V150a98.55,98.55,0,0,1,129-93.77A24.63,24.63,0,0,1,566.16,80.12Z"></path><path class="a" d="M703.12,223.95a24.65,24.65,0,0,1-24.65,24.65h-1.27a98,98,0,0,1-48-13.22v0.05A98.58,98.58,0,0,1,579.86,150V26.63a24.65,24.65,0,0,1,49.3,0V150.38h0a49.28,49.28,0,0,0,48.51,48.91,0,0,0,0,1,0,0h0.77A24.65,24.65,0,0,1,703.12,223.95Z"></path><path class="a" d="M1883.54,51.39a98.61,98.61,0,1,0,27.87,193.2c-3.46,2.37-11.24,5.82-11.24,5.82a25,25,0,0,0-16.63,23.31,24.65,24.65,0,0,0,24.65,24.65,24.33,24.33,0,0,0,9.85-2.05,98.66,98.66,0,0,0,64-88.8h0.07V150A98.61,98.61,0,0,0,1883.54,51.39Zm0,147.91a49.3,49.3,0,1,1,49.3-49.3A49.31,49.31,0,0,1,1883.54,199.3Z"></path></g><g id="layer-4" data-svg-origin="209.64093017578125 1.6300010681152344" transform="matrix(1,0,0,1,0,0)" style="visibility: inherit; opacity: 0.2;"><path class="a" d="M308.24,51.39A98.61,98.61,0,1,0,359.74,234.1a24.65,24.65,0,0,0,47.11-10.15V150A98.61,98.61,0,0,0,308.24,51.39Zm0,147.91a49.3,49.3,0,1,1,49.3-49.3A49.31,49.31,0,0,1,308.24,199.3Z"></path><path class="a" d="M792.82,51.39A98.61,98.61,0,1,0,891.43,150,98.61,98.61,0,0,0,792.82,51.39Zm0,147.91a49.3,49.3,0,1,1,49.3-49.3A49.3,49.3,0,0,1,792.82,199.3Z"></path><path class="a" d="M1102.33,76v74a98.61,98.61,0,0,1-197.21,0V76a24.65,24.65,0,0,1,49.3,0v74a49.3,49.3,0,1,0,98.61,0V76a24.67,24.67,0,0,1,24.65-24.65A24.65,24.65,0,0,1,1102.33,76Z"></path><path class="a" d="M1773.29,150v74a24.65,24.65,0,0,1-49.3,0V150a49.3,49.3,0,1,0-98.61,0v74a24.65,24.65,0,0,1-49.3,0V150A98.61,98.61,0,0,1,1773.29,150Z"></path><path class="a" d="M1499.39,150v74a24.65,24.65,0,0,1-49.3,0V150a49.29,49.29,0,0,0-98.58-.93h0v75a24.65,24.65,0,1,1-49.3,0V26.52a24.65,24.65,0,1,1,49.3,0v38.1A98.58,98.58,0,0,1,1499.39,150Z"></path><rect class="a" x="1513.08" y="50.94" width="49.3" height="197.78" rx="24.65" ry="24.65"></rect><path class="a" d="M1288.48,205.25a24.71,24.71,0,0,1-10.18,20,98.61,98.61,0,1,1-.59-151,24.76,24.76,0,0,1-14.09,45,24.41,24.41,0,0,1-17.13-7l-0.05,0a49.3,49.3,0,1,0,.55,74.86h0A24.64,24.64,0,0,1,1288.48,205.25Z"></path><circle class="a" cx="1537.73" cy="26.28" r="24.65"></circle><path class="a" d="M568.22,80.12a24.66,24.66,0,0,1-33.51,23,0.18,0.18,0,0,0,0,.08A49.29,49.29,0,0,0,469.85,150v74a24.65,24.65,0,1,1-49.3,0V150a98.55,98.55,0,0,1,129-93.77A24.63,24.63,0,0,1,568.22,80.12Z"></path><path class="a" d="M705.17,223.95a24.65,24.65,0,0,1-24.65,24.65h-1.27a98,98,0,0,1-48-13.22v0.05A98.58,98.58,0,0,1,581.91,150V26.63a24.65,24.65,0,1,1,49.3,0V150.38h0a49.28,49.28,0,0,0,48.51,48.91,0,0,0,0,1,0,0h0.77A24.65,24.65,0,0,1,705.17,223.95Z"></path><path class="a" d="M1885.59,51.39a98.61,98.61,0,1,0,27.87,193.2c-3.46,2.37-11.24,5.82-11.24,5.82a25,25,0,0,0-16.63,23.31,24.65,24.65,0,0,0,24.65,24.65,24.33,24.33,0,0,0,9.85-2.05,98.66,98.66,0,0,0,64-88.8h0.07V150A98.61,98.61,0,0,0,1885.59,51.39Zm0,147.91a49.3,49.3,0,1,1,49.3-49.3A49.31,49.31,0,0,1,1885.59,199.3Z"></path></g><g id="layer-5" data-svg-origin="211.69094848632812 1.6300010681152344" transform="matrix(1,0,0,1,0,0)" style="visibility: inherit; opacity: 0.2;"><path class="a" d="M310.3,51.39A98.61,98.61,0,1,0,361.79,234.1a24.65,24.65,0,0,0,47.11-10.15V150A98.61,98.61,0,0,0,310.3,51.39Zm0,147.91A49.3,49.3,0,1,1,359.6,150,49.31,49.31,0,0,1,310.3,199.3Z"></path><path class="a" d="M794.88,51.39A98.61,98.61,0,1,0,893.48,150,98.61,98.61,0,0,0,794.88,51.39Zm0,147.91a49.3,49.3,0,1,1,49.3-49.3A49.3,49.3,0,0,1,794.88,199.3Z"></path><path class="a" d="M1104.39,76v74a98.61,98.61,0,1,1-197.21,0V76a24.65,24.65,0,0,1,49.3,0v74a49.3,49.3,0,0,0,98.61,0V76a24.67,24.67,0,0,1,24.65-24.65A24.65,24.65,0,0,1,1104.39,76Z"></path><path class="a" d="M1775.35,150v74a24.65,24.65,0,0,1-49.3,0V150a49.3,49.3,0,1,0-98.61,0v74a24.65,24.65,0,0,1-49.3,0V150A98.61,98.61,0,1,1,1775.35,150Z"></path><path class="a" d="M1501.44,150v74a24.65,24.65,0,0,1-49.3,0V150a49.29,49.29,0,0,0-98.58-.93h0v75a24.65,24.65,0,1,1-49.3,0V26.52a24.65,24.65,0,0,1,49.3,0v38.1A98.58,98.58,0,0,1,1501.44,150Z"></path><rect class="a" x="1515.14" y="50.94" width="49.3" height="197.78" rx="24.65" ry="24.65"></rect><path class="a" d="M1290.54,205.25a24.71,24.71,0,0,1-10.18,20,98.61,98.61,0,1,1-.59-151,24.76,24.76,0,0,1-14.09,45,24.41,24.41,0,0,1-17.13-7l-0.05,0a49.3,49.3,0,1,0,.55,74.86h0A24.64,24.64,0,0,1,1290.54,205.25Z"></path><circle class="a" cx="1539.79" cy="26.28" r="24.65"></circle><path class="a" d="M570.27,80.12a24.66,24.66,0,0,1-33.51,23,0.18,0.18,0,0,0,0,.08A49.29,49.29,0,0,0,471.9,150v74a24.65,24.65,0,1,1-49.3,0V150a98.55,98.55,0,0,1,129-93.77A24.63,24.63,0,0,1,570.27,80.12Z"></path><path class="a" d="M707.23,223.95a24.65,24.65,0,0,1-24.65,24.65H681.3a98,98,0,0,1-48-13.22v0.05A98.58,98.58,0,0,1,584,150V26.63a24.65,24.65,0,0,1,49.3,0V150.38h0a49.28,49.28,0,0,0,48.51,48.91,0,0,0,0,1,0,0h0.77A24.65,24.65,0,0,1,707.23,223.95Z"></path><path class="a" d="M1887.65,51.39a98.61,98.61,0,1,0,27.87,193.2c-3.46,2.37-11.24,5.82-11.24,5.82a25,25,0,0,0-16.63,23.31,24.65,24.65,0,0,0,24.65,24.65,24.33,24.33,0,0,0,9.85-2.05,98.66,98.66,0,0,0,64-88.8h0.07V150A98.61,98.61,0,0,0,1887.65,51.39Zm0,147.91A49.3,49.3,0,1,1,1937,150,49.31,49.31,0,0,1,1887.65,199.3Z"></path></g><g id="layer-6" data-svg-origin="213.75100708007812 1.6300010681152344" transform="matrix(1,0,0,1,0,0)" style="visibility: inherit; opacity: 0.2;"><path class="a" d="M312.35,51.39A98.61,98.61,0,1,0,363.85,234.1,24.65,24.65,0,0,0,411,223.95V150A98.61,98.61,0,0,0,312.35,51.39Zm0,147.91a49.3,49.3,0,1,1,49.3-49.3A49.31,49.31,0,0,1,312.35,199.3Z"></path><path class="a" d="M796.93,51.39A98.61,98.61,0,1,0,895.54,150,98.61,98.61,0,0,0,796.93,51.39Zm0,147.91a49.3,49.3,0,1,1,49.3-49.3A49.3,49.3,0,0,1,796.93,199.3Z"></path><path class="a" d="M1106.44,76v74a98.61,98.61,0,0,1-197.21,0V76a24.65,24.65,0,0,1,49.3,0v74a49.3,49.3,0,0,0,98.61,0V76a24.67,24.67,0,0,1,24.65-24.65A24.65,24.65,0,0,1,1106.44,76Z"></path><path class="a" d="M1777.4,150v74a24.65,24.65,0,0,1-49.3,0V150a49.3,49.3,0,0,0-98.61,0v74a24.65,24.65,0,1,1-49.3,0V150A98.61,98.61,0,0,1,1777.4,150Z"></path><path class="a" d="M1503.5,150v74a24.65,24.65,0,1,1-49.3,0V150a49.29,49.29,0,0,0-98.58-.93h0v75a24.65,24.65,0,1,1-49.3,0V26.52a24.65,24.65,0,0,1,49.3,0v38.1A98.58,98.58,0,0,1,1503.5,150Z"></path><rect class="a" x="1517.19" y="50.94" width="49.3" height="197.78" rx="24.65" ry="24.65"></rect><path class="a" d="M1292.59,205.25a24.71,24.71,0,0,1-10.18,20,98.61,98.61,0,1,1-.59-151,24.76,24.76,0,0,1-14.09,45,24.41,24.41,0,0,1-17.13-7l-0.05,0a49.3,49.3,0,1,0,.55,74.86h0A24.64,24.64,0,0,1,1292.59,205.25Z"></path><circle class="a" cx="1541.84" cy="26.28" r="24.65"></circle><path class="a" d="M572.33,80.12a24.66,24.66,0,0,1-33.51,23,0.18,0.18,0,0,0,0,.08A49.29,49.29,0,0,0,474,150v74a24.65,24.65,0,1,1-49.3,0V150a98.55,98.55,0,0,1,129-93.77A24.63,24.63,0,0,1,572.33,80.12Z"></path><path class="a" d="M709.28,223.95a24.65,24.65,0,0,1-24.65,24.65h-1.27a98,98,0,0,1-48-13.22v0.05A98.58,98.58,0,0,1,586,150V26.63a24.65,24.65,0,0,1,49.3,0V150.38h0a49.28,49.28,0,0,0,48.51,48.91,0,0,0,0,1,0,0h0.77A24.65,24.65,0,0,1,709.28,223.95Z"></path><path class="a" d="M1889.7,51.39a98.61,98.61,0,1,0,27.87,193.2c-3.46,2.37-11.24,5.82-11.24,5.82a25,25,0,0,0-16.63,23.31,24.65,24.65,0,0,0,24.65,24.65,24.33,24.33,0,0,0,9.85-2.05,98.66,98.66,0,0,0,64-88.8h0.07V150A98.61,98.61,0,0,0,1889.7,51.39Zm0,147.91A49.3,49.3,0,1,1,1939,150,49.31,49.31,0,0,1,1889.7,199.3Z"></path></g><g id="layer-7" data-svg-origin="215.80093383789062 1.6300010681152344" transform="matrix(1,0,0,1,0,0)" style="visibility: inherit; opacity: 0.2;"><path class="a" d="M314.41,51.39A98.61,98.61,0,1,0,365.9,234.1,24.65,24.65,0,0,0,413,223.95V150A98.61,98.61,0,0,0,314.41,51.39Zm0,147.91a49.3,49.3,0,1,1,49.3-49.3A49.31,49.31,0,0,1,314.41,199.3Z"></path><path class="a" d="M799,51.39A98.61,98.61,0,1,0,897.59,150,98.61,98.61,0,0,0,799,51.39Zm0,147.91a49.3,49.3,0,1,1,49.3-49.3A49.3,49.3,0,0,1,799,199.3Z"></path><path class="a" d="M1108.5,76v74a98.61,98.61,0,0,1-197.21,0V76a24.65,24.65,0,0,1,49.3,0v74a49.3,49.3,0,1,0,98.61,0V76a24.67,24.67,0,0,1,24.65-24.65A24.65,24.65,0,0,1,1108.5,76Z"></path><path class="a" d="M1779.46,150v74a24.65,24.65,0,0,1-49.3,0V150a49.3,49.3,0,1,0-98.61,0v74a24.65,24.65,0,0,1-49.3,0V150A98.61,98.61,0,0,1,1779.46,150Z"></path><path class="a" d="M1505.55,150v74a24.65,24.65,0,0,1-49.3,0V150a49.29,49.29,0,0,0-98.58-.93h0v75a24.65,24.65,0,1,1-49.3,0V26.52a24.65,24.65,0,1,1,49.3,0v38.1A98.58,98.58,0,0,1,1505.55,150Z"></path><rect class="a" x="1519.25" y="50.94" width="49.3" height="197.78" rx="24.65" ry="24.65"></rect><path class="a" d="M1294.64,205.25a24.71,24.71,0,0,1-10.18,20,98.61,98.61,0,1,1-.59-151,24.76,24.76,0,0,1-14.09,45,24.41,24.41,0,0,1-17.13-7l-0.05,0a49.3,49.3,0,1,0,.55,74.86h0A24.64,24.64,0,0,1,1294.64,205.25Z"></path><circle class="a" cx="1543.9" cy="26.28" r="24.65"></circle><path class="a" d="M574.38,80.12a24.66,24.66,0,0,1-33.51,23,0.18,0.18,0,0,0,0,.08A49.29,49.29,0,0,0,476,150v74a24.65,24.65,0,1,1-49.3,0V150a98.55,98.55,0,0,1,129-93.77A24.63,24.63,0,0,1,574.38,80.12Z"></path><path class="a" d="M711.33,223.95a24.65,24.65,0,0,1-24.65,24.65h-1.27a98,98,0,0,1-48-13.22v0.05A98.58,98.58,0,0,1,588.08,150V26.63a24.65,24.65,0,1,1,49.3,0V150.38h0a49.28,49.28,0,0,0,48.51,48.91,0,0,0,0,1,0,0h0.77A24.65,24.65,0,0,1,711.33,223.95Z"></path><path class="a" d="M1891.76,51.39a98.61,98.61,0,1,0,27.87,193.2c-3.46,2.37-11.24,5.82-11.24,5.82a25,25,0,0,0-16.63,23.31,24.65,24.65,0,0,0,24.65,24.65,24.33,24.33,0,0,0,9.85-2.05,98.66,98.66,0,0,0,64-88.8h0.07V150A98.61,98.61,0,0,0,1891.76,51.39Zm0,147.91a49.3,49.3,0,1,1,49.3-49.3A49.31,49.31,0,0,1,1891.76,199.3Z"></path></g><g id="layer-8" data-svg-origin="217.90101623535156 1.6300010681152344" transform="matrix(1,0,0,1,0,0)" style="visibility: inherit; opacity: 0.2;"><path class="a" d="M316.46,51.39A98.61,98.61,0,1,0,368,234.1a24.65,24.65,0,0,0,47.11-10.15V150A98.61,98.61,0,0,0,316.46,51.39Zm0,147.91a49.3,49.3,0,1,1,49.3-49.3A49.31,49.31,0,0,1,316.46,199.3Z"></path><path class="a" d="M801,51.39A98.61,98.61,0,1,0,899.65,150,98.61,98.61,0,0,0,801,51.39Zm0,147.91a49.3,49.3,0,1,1,49.3-49.3A49.3,49.3,0,0,1,801,199.3Z"></path><path class="a" d="M1110.55,76v74a98.61,98.61,0,1,1-197.21,0V76a24.65,24.65,0,0,1,49.3,0v74a49.3,49.3,0,0,0,98.61,0V76a24.67,24.67,0,0,1,24.65-24.65A24.65,24.65,0,0,1,1110.55,76Z"></path><path class="a" d="M1781.51,150v74a24.65,24.65,0,0,1-49.3,0V150a49.3,49.3,0,0,0-98.61,0v74a24.65,24.65,0,0,1-49.3,0V150A98.61,98.61,0,1,1,1781.51,150Z"></path><path class="a" d="M1507.6,150v74a24.65,24.65,0,0,1-49.3,0V150a49.29,49.29,0,0,0-98.58-.93h0v75a24.65,24.65,0,1,1-49.3,0V26.52a24.65,24.65,0,0,1,49.3,0v38.1A98.58,98.58,0,0,1,1507.6,150Z"></path><rect class="a" x="1521.3" y="50.94" width="49.3" height="197.78" rx="24.65" ry="24.65"></rect><path class="a" d="M1296.7,205.25a24.71,24.71,0,0,1-10.18,20,98.61,98.61,0,1,1-.59-151,24.76,24.76,0,0,1-14.09,45,24.41,24.41,0,0,1-17.13-7l-0.05,0a49.3,49.3,0,1,0,.55,74.86h0A24.64,24.64,0,0,1,1296.7,205.25Z"></path><circle class="a" cx="1545.95" cy="26.28" r="24.65"></circle><path class="a" d="M576.44,80.12a24.66,24.66,0,0,1-33.51,23,0.18,0.18,0,0,0,0,.08A49.29,49.29,0,0,0,478.06,150v74a24.65,24.65,0,1,1-49.3,0V150a98.55,98.55,0,0,1,129-93.77A24.63,24.63,0,0,1,576.44,80.12Z"></path><path class="a" d="M713.39,223.95a24.65,24.65,0,0,1-24.65,24.65h-1.27a98,98,0,0,1-48-13.22v0.05A98.58,98.58,0,0,1,590.13,150V26.63a24.65,24.65,0,0,1,49.3,0V150.38h0A49.28,49.28,0,0,0,688,199.28a0,0,0,0,1,0,0h0.77A24.65,24.65,0,0,1,713.39,223.95Z"></path><path class="a" d="M1893.81,51.39a98.61,98.61,0,1,0,27.87,193.2c-3.46,2.37-11.24,5.82-11.24,5.82a25,25,0,0,0-16.63,23.31,24.65,24.65,0,0,0,24.65,24.65,24.33,24.33,0,0,0,9.85-2.05,98.66,98.66,0,0,0,64-88.8h0.07V150A98.61,98.61,0,0,0,1893.81,51.39Zm0,147.91a49.3,49.3,0,1,1,49.3-49.3A49.31,49.31,0,0,1,1893.81,199.3Z"></path></g><g id="layer-9" data-svg-origin="219.90093994140625 1.6300010681152344" transform="matrix(1,0,0,1,0,0)" style="visibility: inherit; opacity: 0.2;"><path class="a" d="M318.51,51.39A98.61,98.61,0,1,0,370,234.1a24.65,24.65,0,0,0,47.11-10.15V150A98.61,98.61,0,0,0,318.51,51.39Zm0,147.91a49.3,49.3,0,1,1,49.3-49.3A49.31,49.31,0,0,1,318.51,199.3Z"></path><path class="a" d="M803.09,51.39A98.61,98.61,0,1,0,901.7,150,98.61,98.61,0,0,0,803.09,51.39Zm0,147.91A49.3,49.3,0,1,1,852.4,150,49.3,49.3,0,0,1,803.09,199.3Z"></path><path class="a" d="M1112.61,76v74a98.61,98.61,0,0,1-197.21,0V76a24.65,24.65,0,0,1,49.3,0v74a49.3,49.3,0,1,0,98.61,0V76A24.67,24.67,0,0,1,1088,51.39,24.65,24.65,0,0,1,1112.61,76Z"></path><path class="a" d="M1783.56,150v74a24.65,24.65,0,0,1-49.3,0V150a49.3,49.3,0,0,0-98.61,0v74a24.65,24.65,0,1,1-49.3,0V150A98.61,98.61,0,0,1,1783.56,150Z"></path><path class="a" d="M1509.66,150v74a24.65,24.65,0,1,1-49.3,0V150a49.29,49.29,0,0,0-98.58-.93h0v75a24.65,24.65,0,1,1-49.3,0V26.52a24.65,24.65,0,0,1,49.3,0v38.1A98.58,98.58,0,0,1,1509.66,150Z"></path><rect class="a" x="1523.35" y="50.94" width="49.3" height="197.78" rx="24.65" ry="24.65"></rect><path class="a" d="M1298.75,205.25a24.71,24.71,0,0,1-10.18,20,98.61,98.61,0,1,1-.59-151,24.76,24.76,0,0,1-14.09,45,24.41,24.41,0,0,1-17.13-7l-0.05,0a49.3,49.3,0,1,0,.55,74.86h0A24.64,24.64,0,0,1,1298.75,205.25Z"></path><circle class="a" cx="1548.01" cy="26.28" r="24.65"></circle><path class="a" d="M578.49,80.12a24.66,24.66,0,0,1-33.51,23,0.18,0.18,0,0,0,0,.08A49.29,49.29,0,0,0,480.12,150v74a24.65,24.65,0,0,1-49.3,0V150a98.55,98.55,0,0,1,129-93.77A24.63,24.63,0,0,1,578.49,80.12Z"></path><path class="a" d="M715.44,223.95a24.65,24.65,0,0,1-24.65,24.65h-1.27a98,98,0,0,1-48-13.22v0.05A98.58,98.58,0,0,1,592.19,150V26.63a24.65,24.65,0,0,1,49.3,0V150.38h0A49.28,49.28,0,0,0,690,199.28a0,0,0,0,1,0,0h0.77A24.65,24.65,0,0,1,715.44,223.95Z"></path><path class="a" d="M1895.87,51.39a98.61,98.61,0,1,0,27.87,193.2c-3.46,2.37-11.24,5.82-11.24,5.82a25,25,0,0,0-16.63,23.31,24.65,24.65,0,0,0,24.65,24.65,24.33,24.33,0,0,0,9.85-2.05,98.66,98.66,0,0,0,64-88.8h0.07V150A98.61,98.61,0,0,0,1895.87,51.39Zm0,147.91a49.3,49.3,0,1,1,49.3-49.3A49.31,49.31,0,0,1,1895.87,199.3Z"></path></g><g id="layer-10" data-svg-origin="221.96092224121094 1.6300010681152344" transform="matrix(1,0,0,1,0,0)" style="visibility: inherit; opacity: 0.2;"><path class="a" d="M320.57,51.39A98.61,98.61,0,1,0,372.06,234.1a24.65,24.65,0,0,0,47.11-10.15V150A98.61,98.61,0,0,0,320.57,51.39Zm0,147.91a49.3,49.3,0,1,1,49.3-49.3A49.31,49.31,0,0,1,320.57,199.3Z"></path><path class="a" d="M805.15,51.39A98.61,98.61,0,1,0,903.75,150,98.61,98.61,0,0,0,805.15,51.39Zm0,147.91a49.3,49.3,0,1,1,49.3-49.3A49.3,49.3,0,0,1,805.15,199.3Z"></path><path class="a" d="M1114.66,76v74a98.61,98.61,0,1,1-197.21,0V76a24.65,24.65,0,0,1,49.3,0v74a49.3,49.3,0,1,0,98.61,0V76A24.67,24.67,0,0,1,1090,51.39,24.65,24.65,0,0,1,1114.66,76Z"></path><path class="a" d="M1785.62,150v74a24.65,24.65,0,0,1-49.3,0V150a49.3,49.3,0,1,0-98.61,0v74a24.65,24.65,0,0,1-49.3,0V150A98.61,98.61,0,1,1,1785.62,150Z"></path><path class="a" d="M1511.71,150v74a24.65,24.65,0,0,1-49.3,0V150a49.29,49.29,0,0,0-98.58-.93h0v75a24.65,24.65,0,1,1-49.3,0V26.52a24.65,24.65,0,1,1,49.3,0v38.1A98.58,98.58,0,0,1,1511.71,150Z"></path><rect class="a" x="1525.41" y="50.94" width="49.3" height="197.78" rx="24.65" ry="24.65"></rect><path class="a" d="M1300.81,205.25a24.71,24.71,0,0,1-10.18,20,98.61,98.61,0,1,1-.59-151,24.76,24.76,0,0,1-14.09,45,24.41,24.41,0,0,1-17.13-7l-0.05,0a49.3,49.3,0,1,0,.55,74.86h0A24.64,24.64,0,0,1,1300.81,205.25Z"></path><circle class="a" cx="1550.06" cy="26.28" r="24.65"></circle><path class="a" d="M580.54,80.12a24.66,24.66,0,0,1-33.51,23,0.18,0.18,0,0,0,0,.08A49.29,49.29,0,0,0,482.17,150v74a24.65,24.65,0,1,1-49.3,0V150a98.55,98.55,0,0,1,129-93.77A24.63,24.63,0,0,1,580.54,80.12Z"></path><path class="a" d="M717.5,223.95a24.65,24.65,0,0,1-24.65,24.65h-1.27a98,98,0,0,1-48-13.22v0.05A98.58,98.58,0,0,1,594.24,150V26.63a24.65,24.65,0,1,1,49.3,0V150.38h0a49.28,49.28,0,0,0,48.51,48.91,0,0,0,0,1,0,0h0.77A24.65,24.65,0,0,1,717.5,223.95Z"></path><path class="a" d="M1897.92,51.39a98.61,98.61,0,1,0,27.87,193.2c-3.46,2.37-11.24,5.82-11.24,5.82a25,25,0,0,0-16.63,23.31,24.65,24.65,0,0,0,24.65,24.65,24.33,24.33,0,0,0,9.85-2.05,98.66,98.66,0,0,0,64-88.8h0.07V150A98.61,98.61,0,0,0,1897.92,51.39Zm0,147.91a49.3,49.3,0,1,1,49.3-49.3A49.31,49.31,0,0,1,1897.92,199.3Z"></path></g></svg>