<?xml version="1.0" encoding="utf-8"?>
<!-- Generator: Adobe Illustrator 26.0.0, SVG Export Plug-In . SVG Version: 6.00 Build 0)  -->
<svg version="1.1" id="Layer_1" xmlns="http://www.w3.org/2000/svg" xmlns:xlink="http://www.w3.org/1999/xlink" x="0px" y="0px"
	 viewBox="0 0 1920 100" style="enable-background:new 0 0 1920 100;" xml:space="preserve">
<style type="text/css">
	.st0{clip-path:url(#SVGID_00000160887791853537635860000017998164677889533363_);}
	.st1{fill:#DDD6FE;}
	.st2{fill:#7E22CE;}
	.st3{fill:url(#SVGID_00000178197910445743171350000016541033617218023588_);}
</style>
<g>
	<g>
		<defs>
			<rect id="SVGID_1_" width="1920" height="100"/>
		</defs>
		<clipPath id="SVGID_00000051354733616103005920000002429612154161739680_">
			<use xlink:href="#SVGID_1_"  style="overflow:visible;"/>
		</clipPath>
		<g style="clip-path:url(#SVGID_00000051354733616103005920000002429612154161739680_);">
			<g>
				
					<image style="overflow:visible;enable-background:new    ;" width="8300" height="663" xlink:href="9981E63E.png"  transform="matrix(0.2393 0 0 0.2393 -32.9954 -36)">
				</image>
			</g>
			<path class="st1" d="M0,11.1c12.3,4.5,27.4,8.9,45,11.7C58.3,25,68.6,25.4,83.9,26c36.6,1.6,34.3-1.2,52.8,0.5
				c30.5,2.9,33.8,10.1,66.9,11.9c13.3,0.7,24.1,0.1,29.4-0.3c19.3-1.4,33.2-4.7,36.4-5.4c40.1-8.9,121.4,11.5,214.9,13.6
				c52.5,1.2,63.1-4.5,110.4,1.2c10.1,1.2,32.6,5.3,77.7,13.3c68.7,12.3,80.4,15.5,104.4,13.3c2.1-0.2,20.4-2.9,57-8.5
				c44-6.7,44.4-6.9,49.8-7.3c26.3-1.9,39.4,2.3,82.5,9.7c47,8.1,70.4,12.1,87.4,12.1c44.8,0.1,52.6-11.5,100.7-12.1
				c23.7-0.3,26.1,2.5,70.4,7.3c27.7,3,92.1,9.8,165,6.1c35.7-1.8,27-3.8,84.9-8.5c34.5-2.8,81-6.5,140.8-6.1
				c66.2,0.5,99.3,0.7,144.4,8.5c29.8,5.2,53.1,11.5,91,10.9c29.3-0.4,53.3-4.8,69.3-8.5V0H0V11.1z"/>
			<g>
				
					<image style="overflow:visible;enable-background:new    ;" width="8300" height="613" xlink:href="9981E642.png"  transform="matrix(0.2388 0 0 0.2388 -31.1256 -36)">
				</image>
			</g>
			<path class="st2" d="M0,9.9c22.6,4.8,40.5,8,50.4,9.5c14,2.1,26.8,2.8,44,1.7c16.3-1,20.4,0,36.2-0.2c9.3-0.1,17.8,1,28.1,2
				c22.5,2.2,22.8,7.8,40,8.5c10.1,0.4,18-0.8,34-3.2c21-3.2,20.9-5.2,30.7-5.7c13.5-0.6,18,2.9,45.3,10.5
				c13.3,3.7,27.2,7.6,45.3,10.5c24,3.9,42.7,4,48.5,4c23.7,0,42.5-3,52.6-4.8c18.4-3.4,18.9-5.4,34.8-8.1c18-3,31.5-2.8,49.4-2.4
				c31.3,0.7,56.3,4.3,69.6,6.5c37.2,6.2,35.1,10,63.9,13.8c31.7,4.1,57.4,2.5,70.4,1.6c25.1-1.7,49.5-5.9,57.4-7.3
				c20.2-3.5,25.2-5.4,39.6-6.5c5.5-0.4,20.8-1.3,46.1,1.6c22.1,2.5,29.2,5.4,55,10.5c34.6,6.9,53.7,10.7,78.5,10.5
				c11.4-0.1,28-2.5,60.7-7.3c61.7-9.1,55.7-10.5,72-11.3c24.6-1.2,49,3.3,97.9,12.1c31.5,5.7,44,9.4,66.3,7.3
				c20.4-2,21.1-6.2,45.3-9.7c30-4.4,54.2-1.6,74.4,0.8c8.6,1,27.6,4.7,65.5,12.1c32.1,6.2,36.1,7.4,46.1,7.3
				c16.5-0.1,29.9-3.9,56.6-11.3c15.4-4.3,29.4-8.2,47.7-15.4c15.4-6,20.7-9.2,32.4-11.3c4-0.7,14.3-2.3,36.4,0
				c20.9,2.2,36.4,6.2,64.7,13.8c22,5.8,25.1,7.4,38,9.7c11.3,2.1,24.1,4.4,38.8,4c12.1-0.3,32.7-2.5,57.2-14.6V0H0V9.9z"/>
			<g>
				
					<image style="overflow:visible;enable-background:new    ;" width="8300" height="517" xlink:href="9981E645.png"  transform="matrix(0.2386 0 0 0.2386 -30.2205 -36)">
				</image>
			</g>
			
				<linearGradient id="SVGID_00000016044834495968072000000005679570774983350418_" gradientUnits="userSpaceOnUse" x1="960.01" y1="51.2255" x2="960.01" y2="-9.094947e-13">
				<stop  offset="0" style="stop-color:#692C90"/>
				<stop  offset="1" style="stop-color:#000000"/>
			</linearGradient>
			<path style="fill:url(#SVGID_00000016044834495968072000000005679570774983350418_);" d="M0,9c36.2,8.5,65.5,10,85.5,9.9
				c25.8-0.2,36.7-3.3,68.4-1.6c30.8,1.6,31.2,5.1,53.8,4.9c34.2-0.4,39.9-8.4,67.6-7.3c23.3,0.9,23.7,6.8,55,12.9
				c39.3,7.7,71.4,4.9,94.6,2.8c38.1-3.3,34-8.3,72.8-12.1c48.1-4.8,85.4-0.2,95.9,1.2c33.9,4.6,31,8.8,71.6,14.6
				c25.6,3.6,50.8,7,82.5,3.6c29-3.1,27.1-8,57-12.1c35.5-5,63.4-1.7,98.3,2.4c42.8,5,42.1,9.2,80.1,12.1c36.2,2.8,62.8,1,74,0
				c28.1-2.4,31.4-5.5,55.8-8.5c42.4-5.2,76.2-1.1,126.2,4.9c48.5,5.8,50.8,9.8,75.2,8.5c32.7-1.8,36.6-9.3,72.8-12.1
				c29-2.3,51.1,0.7,82.5,4.8c53.4,7.1,51.6,13.6,80.1,13.4c12.2-0.1,37.1-5.3,86.2-15.8c52.5-11.2,52.4-12,61.9-12.1
				c10.4-0.2,34.6,3.9,82.5,12.1c23.4,4,31.3,5.5,44.9,6.1c11.6,0.5,29,1.1,51-3.6c11.2-2.4,26.6-6.9,43.8-15.8V0H0V9z"/>
		</g>
	</g>
</g>
</svg>
