<?xml version="1.0" encoding="utf-8"?>
<!-- Generator: Adobe Illustrator 26.0.0, SVG Export Plug-In . SVG Version: 6.00 Build 0)  -->
<svg version="1.1" id="Layer_1" xmlns="http://www.w3.org/2000/svg" xmlns:xlink="http://www.w3.org/1999/xlink" x="0px" y="0px"
	 viewBox="0 0 1920 100" style="enable-background:new 0 0 1920 100;" xml:space="preserve">
<style type="text/css">
	.st0{clip-path:url(#SVGID_00000101067765879762778830000004594299621014553019_);}
	.st1{fill:#DDD6FE;}
	.st2{fill:#7E22CE;}
	.st3{fill:url(#SVGID_00000005983305320675667730000002350819564640550300_);}
</style>
<g>
	<g>
		<defs>
			<rect id="SVGID_1_" width="1920" height="100"/>
		</defs>
		<clipPath id="SVGID_00000080200504819346608430000017061881981628125880_">
			<use xlink:href="#SVGID_1_"  style="overflow:visible;"/>
		</clipPath>
		<g style="clip-path:url(#SVGID_00000080200504819346608430000017061881981628125880_);">
			<g>
				
					<image style="overflow:visible;enable-background:new    ;" width="8300" height="663" xlink:href="3A73A809.png"  transform="matrix(0.2393 0 0 0.2393 -32.9954 -36)">
				</image>
			</g>
			<path class="st1" d="M1920,11.1c-12.3,4.5-27.4,8.9-45,11.7c-13.3,2.2-23.6,2.6-38.8,3.2c-36.6,1.6-34.3-1.2-52.8,0.5
				c-30.5,2.9-33.8,10.1-66.9,11.9c-13.3,0.7-24.1,0.1-29.4-0.3c-19.3-1.4-33.2-4.7-36.4-5.4c-40.1-8.9-121.4,11.5-214.9,13.6
				c-52.5,1.2-63.1-4.5-110.4,1.2c-10.1,1.2-32.6,5.3-77.7,13.3c-68.7,12.3-80.4,15.5-104.4,13.3c-2.1-0.2-20.4-2.9-57-8.5
				c-44-6.7-44.4-6.9-49.8-7.3c-26.3-1.9-39.4,2.3-82.5,9.7c-47,8.1-70.4,12.1-87.4,12.1c-44.8,0.1-52.6-11.5-100.7-12.1
				c-23.7-0.3-26.1,2.5-70.4,7.3c-27.7,3-92.1,9.8-165,6.1c-35.7-1.8-27-3.8-84.9-8.5c-34.5-2.8-81-6.5-140.8-6.1
				c-66.2,0.5-99.3,0.7-144.4,8.5c-29.8,5.2-53.1,11.5-91,10.9C40,86,16,81.6,0,77.9V0h1920V11.1z"/>
			<g>
				
					<image style="overflow:visible;enable-background:new    ;" width="8300" height="613" xlink:href="3A73A80B.png"  transform="matrix(0.2388 0 0 0.2388 -31.1256 -36)">
				</image>
			</g>
			<path class="st2" d="M1920,9.9c-22.6,4.8-40.5,8-50.4,9.5c-14,2.1-26.8,2.8-44,1.7c-16.3-1-20.4,0-36.2-0.2
				c-9.3-0.1-17.8,1-28.1,2c-22.5,2.2-22.8,7.8-40,8.5c-10.1,0.4-18-0.8-34-3.2c-21-3.2-20.9-5.2-30.7-5.7
				c-13.5-0.6-18,2.9-45.3,10.5c-13.3,3.7-27.2,7.6-45.3,10.5c-24,3.9-42.7,4-48.5,4c-23.7,0-42.5-3-52.6-4.8
				c-18.4-3.4-18.9-5.4-34.8-8.1c-18.1-3-31.5-2.8-49.3-2.4c-31.3,0.7-56.3,4.3-69.6,6.5c-37.2,6.2-35.1,10-63.9,13.8
				c-31.7,4.1-57.4,2.5-70.4,1.6c-25.1-1.7-49.5-5.9-57.4-7.3c-20.2-3.5-25.2-5.4-39.6-6.5c-5.5-0.4-20.8-1.3-46.1,1.6
				c-22.1,2.5-29.2,5.4-55,10.5C944,59.3,924.9,63.1,900.1,63c-11.4-0.1-28-2.5-60.7-7.3c-61.7-9.1-55.7-10.5-72-11.3
				c-24.6-1.2-49,3.3-97.9,12.1c-31.5,5.7-44,9.4-66.3,7.3c-20.4-2-21.1-6.2-45.3-9.7c-30-4.4-54.2-1.6-74.4,0.8
				c-8.6,1-27.6,4.7-65.5,12.1c-32,6.2-36.1,7.4-46.1,7.3c-16.5-0.1-29.9-3.9-56.6-11.3c-15.5-4.3-29.4-8.2-47.7-15.4
				c-15.4-6-20.7-9.2-32.4-11.3c-4-0.7-14.3-2.3-36.4,0c-20.9,2.2-36.4,6.2-64.7,13.8c-22,5.8-25.1,7.4-38,9.7
				c-11.3,2.1-24.1,4.4-38.8,4C45.1,63.5,24.5,61.2,0,49.2V0h1920V9.9z"/>
			<g>
				
					<image style="overflow:visible;enable-background:new    ;" width="8300" height="517" xlink:href="3A73A80E.png"  transform="matrix(0.2386 0 0 0.2386 -30.2205 -36)">
				</image>
			</g>
			
				<linearGradient id="SVGID_00000068645686584300074210000010451248135528040610_" gradientUnits="userSpaceOnUse" x1="960" y1="51.2255" x2="960" y2="-9.094947e-13">
				<stop  offset="0" style="stop-color:#692C90"/>
				<stop  offset="1" style="stop-color:#000000"/>
			</linearGradient>
			<path style="fill:url(#SVGID_00000068645686584300074210000010451248135528040610_);" d="M1920,9c-36.2,8.5-65.5,10-85.5,9.9
				c-25.8-0.2-36.7-3.3-68.4-1.6c-30.8,1.6-31.2,5.1-53.8,4.9c-34.2-0.4-39.9-8.4-67.6-7.3c-23.3,0.9-23.7,6.8-55,12.9
				c-39.3,7.7-71.3,4.9-94.7,2.8c-38.1-3.3-34-8.3-72.8-12.1c-48.2-4.8-85.4-0.2-95.9,1.2c-33.9,4.6-31,8.8-71.6,14.6
				c-25.6,3.6-50.8,7-82.5,3.6c-29-3.1-27.1-8-57-12.1c-35.5-5-63.4-1.7-98.3,2.4c-42.8,5-42.1,9.2-80.1,12.1c-36.2,2.8-62.8,1-74,0
				c-28.1-2.4-31.4-5.5-55.8-8.5c-42.5-5.2-76.2-1.1-126.2,4.9c-48.5,5.8-50.8,9.8-75.2,8.5c-32.7-1.8-36.6-9.3-72.8-12.1
				c-29-2.3-51.1,0.7-82.5,4.8c-53.4,7.1-51.6,13.6-80.1,13.4c-12.2-0.1-37-5.3-86.2-15.8c-52.5-11.2-52.4-12-61.9-12.1
				c-10.4-0.2-34.6,3.9-82.5,12.1c-23.4,4-31.3,5.5-44.9,6.1c-11.6,0.5-29,1.1-51-3.6C32.6,35.4,17.2,31,0,22.1V0h1920V9z"/>
		</g>
	</g>
</g>
</svg>
