<?xml version="1.0" encoding="utf-8"?>
<!-- Generator: Adobe Illustrator 26.0.0, SVG Export Plug-In . SVG Version: 6.00 Build 0)  -->
<svg version="1.1" id="Layer_1" xmlns="http://www.w3.org/2000/svg" xmlns:xlink="http://www.w3.org/1999/xlink" x="0px" y="0px"
	 viewBox="0 0 400 400" style="enable-background:new 0 0 400 400;" xml:space="preserve">
<style type="text/css">
	.st0{opacity:0.948;fill-rule:evenodd;clip-rule:evenodd;enable-background:new    ;}
	.st1{opacity:0.977;fill-rule:evenodd;clip-rule:evenodd;enable-background:new    ;}
	.st2{opacity:0.953;fill-rule:evenodd;clip-rule:evenodd;enable-background:new    ;}
</style>
<g id="g4" transform="translate(96,112)">
	<path id="path2" class="st0" d="M75.08,35.2c-8.99-11.3-16.99-23.3-24-36c0-26.67,0-53.33,0-80c8,0,16,0,24,0
		C75.08-42.13,75.08-3.47,75.08,35.2z"/>
</g>
<g id="g8" transform="translate(96,112)">
	<path id="path6" class="st1" d="M51.08-0.8c7.01,12.7,15.01,24.7,24,36c41.94,63.79,84.11,127.45,126.5,191
		c0.5-94,0.67-188,0.5-282c7.67,0,15.33,0,23,0c0,104.33,0,208.67,0,313c-10.01,0.17-20.01,0-30-0.5
		c-39.9-59.65-79.9-119.15-120-178.5c-7.26-12.85-15.26-25.19-24-37c-15.39-22.43-30.56-45.1-45.5-68
		c-0.5,94.67-0.67,189.33-0.5,284c-7.67,0-15.33,0-23,0c0-104.33,0-208.67,0-313c11.02-0.33,22.02,0,33,1
		C27.1-36.73,39.1-18.73,51.08-0.8z"/>
</g>
<g id="g40" transform="translate(96,112)">
	<path id="path38" class="st2" d="M51.08,41.2c8.74,11.81,16.74,24.15,24,37c0,51,0,102,0,153c-8,0-16,0-24,0
		C51.08,167.87,51.08,104.53,51.08,41.2z"/>
</g>
</svg>
