<?xml version="1.0" encoding="utf-8"?>
<!-- Generator: Adobe Illustrator 26.0.0, SVG Export Plug-In . SVG Version: 6.00 Build 0)  -->
<svg version="1.1" id="Layer_1" xmlns="http://www.w3.org/2000/svg" xmlns:xlink="http://www.w3.org/1999/xlink" x="0px" y="0px"
	 viewBox="0 0 213.73 216" style="enable-background:new 0 0 213.73 216;" xml:space="preserve">
<style type="text/css">
	.st0{fill:url(#SVGID_1_);}
	.st1{fill:url(#SVGID_00000078010742846593784600000008222270985860650901_);}
	.st2{fill:#FACC15;}
</style>
<radialGradient id="SVGID_1_" cx="108" cy="108" r="108" gradientUnits="userSpaceOnUse">
	<stop  offset="0.8092" style="stop-color:#000000;stop-opacity:0.5"/>
	<stop  offset="1" style="stop-color:#FFFFFF;stop-opacity:0"/>
</radialGradient>
<circle class="st0" cx="108" cy="108" r="108"/>
<linearGradient id="SVGID_00000132791408505151929810000010734457282468205495_" gradientUnits="userSpaceOnUse" x1="8.405" y1="107.6599" x2="208.405" y2="107.6599">
	<stop  offset="0" style="stop-color:#A855F7"/>
	<stop  offset="1" style="stop-color:#6B21A8"/>
</linearGradient>
<circle style="fill:url(#SVGID_00000132791408505151929810000010734457282468205495_);" cx="108.41" cy="107.66" r="100"/>
<g>
	<path class="st2" d="M84.1,62.83v96H66.71v-96H84.1z"/>
</g>
<path class="st2" d="M116.92,116.64v42.19H99.95v-72h16.22v12.23h0.84c1.66-4.03,4.3-7.23,7.95-9.61c3.64-2.37,8.15-3.56,13.52-3.56
	c4.97,0,9.3,1.06,13.01,3.19c3.7,2.13,6.58,5.2,8.62,9.23c2.05,4.03,3.05,8.92,3.02,14.67v45.84h-16.97v-43.22
	c0-4.81-1.24-8.58-3.73-11.3s-5.91-4.08-10.29-4.08c-2.97,0-5.6,0.65-7.9,1.95c-2.3,1.3-4.09,3.16-5.39,5.6
	C117.57,110.22,116.92,113.17,116.92,116.64z"/>
</svg>
