<?xml version="1.0" encoding="utf-8"?>
<!-- Generator: Adobe Illustrator 26.0.0, SVG Export Plug-In . SVG Version: 6.00 Build 0)  -->
<svg version="1.1" id="Layer_1" xmlns="http://www.w3.org/2000/svg" xmlns:xlink="http://www.w3.org/1999/xlink" x="0px" y="0px"
	 viewBox="0 0 1890 500" style="enable-background:new 0 0 1890 500;" xml:space="preserve">
<style type="text/css">
	.st0{opacity:0.948;fill-rule:evenodd;clip-rule:evenodd;fill:#FFFFFF;enable-background:new    ;}
	.st1{opacity:0.977;fill-rule:evenodd;clip-rule:evenodd;fill:#FFFFFF;enable-background:new    ;}
	.st2{opacity:0.951;fill-rule:evenodd;clip-rule:evenodd;fill:#FFFFFF;enable-background:new    ;}
	.st3{opacity:0.973;fill-rule:evenodd;clip-rule:evenodd;fill:#FFFFFF;enable-background:new    ;}
	.st4{opacity:0.954;fill-rule:evenodd;clip-rule:evenodd;fill:#FFFFFF;enable-background:new    ;}
	.st5{opacity:0.956;fill-rule:evenodd;clip-rule:evenodd;fill:#FFFFFF;enable-background:new    ;}
	.st6{opacity:0.953;fill-rule:evenodd;clip-rule:evenodd;fill:#FFFFFF;enable-background:new    ;}
	.st7{opacity:0.861;fill-rule:evenodd;clip-rule:evenodd;fill:#FFFFFF;enable-background:new    ;}
	.st8{opacity:0.906;fill-rule:evenodd;clip-rule:evenodd;fill:#FFFFFF;enable-background:new    ;}
	.st9{opacity:0.892;fill-rule:evenodd;clip-rule:evenodd;fill:#FFFFFF;enable-background:new    ;}
	.st10{opacity:0.87;fill-rule:evenodd;clip-rule:evenodd;fill:#FFFFFF;enable-background:new    ;}
	.st11{opacity:0.869;fill-rule:evenodd;clip-rule:evenodd;fill:#FFFFFF;enable-background:new    ;}
	.st12{opacity:0.862;fill-rule:evenodd;clip-rule:evenodd;fill:#FFFFFF;enable-background:new    ;}
	.st13{opacity:0.871;fill-rule:evenodd;clip-rule:evenodd;fill:#FFFFFF;enable-background:new    ;}
	.st14{opacity:0.923;fill-rule:evenodd;clip-rule:evenodd;fill:#FFFFFF;enable-background:new    ;}
	.st15{opacity:0.872;fill-rule:evenodd;clip-rule:evenodd;fill:#FFFFFF;enable-background:new    ;}
	.st16{opacity:0.957;fill-rule:evenodd;clip-rule:evenodd;fill:#FFFFFF;enable-background:new    ;}
</style>
<g id="g4">
	<path id="path2" class="st0" d="M144.37,130.65c-8.99-11.3-16.99-23.3-24-36c0-26.67,0-53.33,0-80c8,0,16,0,24,0
		C144.37,53.32,144.37,91.99,144.37,130.65z"/>
</g>
<g id="g8">
	<path id="path6" class="st1" d="M120.37,94.65c7.01,12.7,15.01,24.7,24,36c41.94,63.79,84.11,127.45,126.5,191
		c0.5-94,0.67-188,0.5-282c7.67,0,15.33,0,23,0c0,104.33,0,208.67,0,313c-10.01,0.17-20.01,0-30-0.5
		c-39.9-59.65-79.9-119.15-120-178.5c-7.26-12.85-15.26-25.19-24-37c-15.39-22.43-30.56-45.1-45.5-68
		c-0.5,94.67-0.67,189.33-0.5,284c-7.67,0-15.33,0-23,0c0-104.33,0-208.67,0-313c11.02-0.33,22.02,0,33,1
		C96.4,58.72,108.4,76.72,120.37,94.65z"/>
</g>
<g id="g12">
	<path id="path10" class="st2" d="M356.37,39.65c8,0,16,0,24,0c-0.17,41.34,0,82.67,0.5,124c27.67-35,62.84-45.83,105.5-32.5
		c23.9,12.25,39.4,31.42,46.5,57.5c9.23,35.54,8.56,70.87-2,106c-23.1,57.46-63.94,75.63-122.5,54.5
		c-10.12-4.8-19.28-10.97-27.5-18.5c-0.5,7.33-0.67,14.66-0.5,22c-8,0-16,0-24,0C356.37,248.32,356.37,143.99,356.37,39.65z
		 M439.37,149.65c39.23-2.93,63.4,14.73,72.5,53c4.67,24.67,4.67,49.33,0,74c-12.31,48.08-42.48,65.58-90.5,52.5
		c-15.36-7.27-28.86-17.1-40.5-29.5c-0.67-35-0.67-70,0-105c11.3-16.3,25.47-29.47,42.5-39.5
		C428.72,152.99,434.05,151.16,439.37,149.65z"/>
</g>
<g id="g16">
	<path id="path14" class="st3" d="M817.37,73.65c7.67,0,15.33,0,23,0c0,19,0,38,0,57c12.33,0,24.67,0,37,0c0,8,0,16,0,24
		c-12.33,0-24.67,0-37,0c-0.17,47.34,0,94.67,0.5,142c-0.2,9.68,2.13,18.68,7,27c1.56,1.86,3.39,3.36,5.5,4.5
		c9.53,2.73,19.2,3.56,29,2.5c0.33,7.7,0,15.36-1,23c-14.4,2.59-28.73,1.76-43-2.5c-9.91-5.25-16.07-13.42-18.5-24.5
		c-0.96-4.62-1.62-9.29-2-14c-0.5-52.67-0.67-105.33-0.5-158c-9.67,0-19.33,0-29,0c0-8,0-16,0-24c9.67,0,19.33,0,29,0
		C817.37,111.65,817.37,92.65,817.37,73.65z"/>
</g>
<g id="g20">
	<path id="path18" class="st4" d="M652.37,125.65c55.61-4.84,91.78,19.16,108.5,72c3.79,16.45,5.62,33.11,5.5,50c-58,0-116,0-174,0
		c1.49,22.97,8.99,43.63,22.5,62c19.05,19.57,42.22,27.41,69.5,23.5c21.03-1.92,37.53-11.42,49.5-28.5c1.79-3.83,2.96-7.83,3.5-12
		c8.01-0.17,16.01,0,24,0.5c-10.39,37.71-35.05,59.05-74,64c-64.89,5.32-103.72-23.84-116.5-87.5c-6.09-35.05-1.09-68.38,15-100
		C601.52,145.08,623.69,130.42,652.37,125.65z M654.37,149.65c44.51-3.64,72.68,16.02,84.5,59c1.42,4.91,2.25,9.91,2.5,15
		c-49.67,0.33-99.34,0-149-1c2.97-19.93,10.8-37.6,23.5-53C626.9,159.39,639.74,152.72,654.37,149.65z"/>
</g>
<g id="g24">
	<path id="path22" class="st4" d="M1285.37,125.65c55.61-4.84,91.78,19.16,108.5,72c3.79,16.45,5.62,33.11,5.5,50c-58,0-116,0-174,0
		c1.49,22.97,8.99,43.63,22.5,62c19.05,19.57,42.22,27.41,69.5,23.5c21.03-1.92,37.53-11.42,49.5-28.5c1.79-3.83,2.96-7.83,3.5-12
		c8.01-0.17,16.01,0,24,0.5c-10.39,37.71-35.05,59.05-74,64c-64.89,5.32-103.72-23.84-116.5-87.5c-6.09-35.05-1.09-68.38,15-100
		C1234.52,145.08,1256.68,130.42,1285.37,125.65z M1287.37,149.65c44.51-3.64,72.68,16.02,84.5,59c1.42,4.91,2.25,9.91,2.5,15
		c-49.67,0.33-99.34,0-149-1c2.97-19.93,10.8-37.6,23.5-53C1259.9,159.39,1272.73,152.72,1287.37,149.65z"/>
</g>
<g id="g28">
	<path id="path26" class="st4" d="M1513.37,125.65c55.61-4.84,91.78,19.16,108.5,72c3.79,16.45,5.62,33.11,5.5,50c-58,0-116,0-174,0
		c1.49,22.97,8.99,43.63,22.5,62c19.05,19.57,42.22,27.41,69.5,23.5c21.03-1.92,37.53-11.42,49.5-28.5c1.79-3.83,2.96-7.83,3.5-12
		c8.01-0.17,16.01,0,24,0.5c-10.39,37.71-35.05,59.05-74,64c-64.89,5.32-103.72-23.84-116.5-87.5c-6.09-35.05-1.09-68.38,15-100
		C1462.52,145.08,1484.68,130.42,1513.37,125.65z M1515.37,149.65c44.51-3.64,72.68,16.02,84.5,59c1.42,4.91,2.25,9.91,2.5,15
		c-49.67,0.33-99.34,0-149-1c2.97-19.93,10.8-37.6,23.5-53C1487.9,159.39,1500.73,152.72,1515.37,149.65z"/>
</g>
<g id="g32">
	<path id="path30" class="st2" d="M1755.37,125.65c53.28-6.49,81.78,16.84,85.5,70c0.5,52.33,0.67,104.67,0.5,157c-8,0-16,0-24,0
		c0.17-52,0-104-0.5-156c-1.46-31.63-17.96-47.3-49.5-47c-12.9-0.28-24.9,2.89-36,9.5c-13.69,8.69-25.86,19.19-36.5,31.5
		c-0.5,54-0.67,108-0.5,162c-8,0-16,0-24,0c0-74,0-148,0-222c8,0,16,0,24,0c-0.17,10.34,0,20.67,0.5,31
		C1710.88,142.57,1731.05,130.57,1755.37,125.65z"/>
</g>
<g id="g36">
	<path id="path34" class="st5" d="M889.37,131.65c9.07-1.33,18.23-1.33,27.5,0c16.95,60.84,34.28,121.5,52,182
		c17.67-60.33,35.33-120.67,53-181c4.92-1.3,10.08-1.97,15.5-2c5,0.33,10,0.67,15,1c18.4,61.02,36.9,122.02,55.5,183
		c16.87-60.93,33.53-121.93,50-183c9.09-1.15,18.26-1.32,27.5-0.5c-21.03,73.41-41.86,146.92-62.5,220.5c-4.92,0.65-9.92,0.99-15,1
		c-5.25-0.03-10.25-0.7-15-2c-18.21-60.53-36.88-120.86-56-181c-17.67,60.33-35.33,120.67-53,181c-9.67,0.67-19.33,1.33-29,2
		C932.92,278.96,911.08,205.29,889.37,131.65z"/>
</g>
<g id="g40">
	<path id="path38" class="st6" d="M120.37,136.65c8.74,11.81,16.74,24.15,24,37c0,51,0,102,0,153c-8,0-16,0-24,0
		C120.37,263.32,120.37,199.99,120.37,136.65z"/>
</g>
<g id="g44">
	<path id="path42" class="st7" d="M72.37,373.65c5,0,10,0,15,0c0,3,0,6,0,9c-5.23-0.67-10.07,0.33-14.5,3c-0.67,1.33-1.33,2.67-2,4
		c-0.5,5.32-0.67,10.66-0.5,16c4.67,0,9.33,0,14,0c0,3,0,6,0,9c-4.67,0-9.33,0-14,0c0,22,0,44,0,66c-3,0-6,0-9,0c0-22,0-44,0-66
		c-4,0-8,0-12,0c0-3,0-6,0-9c4,0,8,0,12,0c-1.09-9.49,0.41-18.49,4.5-27C67.84,376.6,70.01,374.94,72.37,373.65z"/>
</g>
<g id="g48">
	<path id="path46" class="st7" d="M1329.37,373.65c5,0,10,0,15,0c0,3,0,6,0,9c-5.23-0.67-10.07,0.33-14.5,3
		c-0.67,1.33-1.33,2.67-2,4c-0.5,5.32-0.67,10.66-0.5,16c4.67,0,9.33,0,14,0c0,3,0,6,0,9c-4.67,0-9.33,0-14,0c0,22,0,44,0,66
		c-3,0-6,0-9,0c0-22,0-44,0-66c-4,0-8,0-12,0c0-3,0-6,0-9c4,0,8,0,12,0c-1.09-9.49,0.41-18.49,4.5-27
		C1324.84,376.6,1327,374.94,1329.37,373.65z"/>
</g>
<g id="g52">
	<path id="path50" class="st8" d="M527.37,374.65c2.67,0,5.33,0,8,0c0,35.33,0,70.67,0,106c-2.67,0-5.33,0-8,0
		c0.16-3.02,0-6.02-0.5-9c-8.95,9.2-19.78,12.37-32.5,9.5c-10.84-4.18-17.34-12.01-19.5-23.5c-3.5-15.67-1.17-30.33,7-44
		c8.48-9.38,18.98-12.55,31.5-9.5c4.89,1.11,9.22,3.28,13,6.5C527.37,398.67,527.71,386.67,527.37,374.65z M498.37,412.65
		c11.01-1.54,20.51,1.46,28.5,9c0.67,12.33,0.67,24.67,0,37c-6.93,10.89-16.77,15.39-29.5,13.5c-7.16-2.81-11.66-7.97-13.5-15.5
		c-2.95-12.52-1.62-24.52,4-36C490.73,416.94,494.23,414.28,498.37,412.65z"/>
</g>
<g id="g56">
	<path id="path54" class="st9" d="M784.37,374.65c2.67,0,5.33,0,8,0c0,4.33,0,8.67,0,13c-2.67,0-5.33,0-8,0
		C784.37,383.32,784.37,378.99,784.37,374.65z"/>
</g>
<g id="g60">
	<path id="path58" class="st10" d="M710.37,385.65c3,0,6,0,9,0c0,6.67,0,13.33,0,20c4,0,8,0,12,0c0,3,0,6,0,9c-4,0-8,0-12,0
		c-0.17,16.67,0,33.34,0.5,50c0.98,5.65,4.31,8.31,10,8c1.01-0.84,2.18-1.17,3.5-1c0,3,0,6,0,9c-2.62-0.27-5.12,0.07-7.5,1
		c-6.79,0.27-11.46-2.73-14-9c-1.41-19.3-1.91-38.63-1.5-58c-3,0-6,0-9,0c0-3,0-6,0-9c3,0,6,0,9,0
		C710.37,398.99,710.37,392.32,710.37,385.65z"/>
</g>
<g id="g64">
	<path id="path62" class="st10" d="M1710.37,385.65c3,0,6,0,9,0c0,6.67,0,13.33,0,20c4,0,8,0,12,0c0,3,0,6,0,9c-4,0-8,0-12,0
		c-0.17,16.67,0,33.34,0.5,50c0.98,5.65,4.31,8.31,10,8c1.01-0.84,2.18-1.17,3.5-1c0,3,0,6,0,9c-2.62-0.27-5.12,0.07-7.5,1
		c-6.79,0.27-11.46-2.73-14-9c-1.41-19.3-1.91-38.63-1.5-58c-3,0-6,0-9,0c0-3,0-6,0-9c3,0,6,0,9,0
		C1710.37,398.99,1710.37,392.32,1710.37,385.65z"/>
</g>
<g id="g68">
	<path id="path66" class="st11" d="M153.37,403.65c20.62-3.62,34.12,4.38,40.5,24c2.46,12.19,1.79,24.19-2,36
		c-8.26,15.44-21.09,21.27-38.5,17.5c-13.18-3.49-21.01-11.99-23.5-25.5c-2.32-11.18-1.65-22.18,2-33
		C135.82,412.53,142.99,406.2,153.37,403.65z M155.37,412.65c16.17-2.31,26.34,4.36,30.5,20c2.93,13.35,0.1,25.19-8.5,35.5
		c-9.44,5.6-19.1,5.93-29,1c-9.59-9.5-13.09-21-10.5-34.5C139.56,423.82,145.4,416.49,155.37,412.65z"/>
</g>
<g id="g72">
	<path id="path70" class="st12" d="M388.37,403.65c21.19-3.96,32.02,4.71,32.5,26c0.5,17,0.67,34,0.5,51c-3,0-6,0-9,0
		c0.44-19.71-0.06-39.38-1.5-59c-2.81-6.57-7.81-9.57-15-9c-9.77,0.89-17.77,5.22-24,13c-0.5,18.33-0.67,36.66-0.5,55c-3,0-6,0-9,0
		c0-25,0-50,0-75c3,0,6,0,9,0c-0.17,3.02,0,6.02,0.5,9C376.51,409.48,382.01,405.82,388.37,403.65z"/>
</g>
<g id="g76">
	<path id="path74" class="st13" d="M610.37,403.65c7.34-0.17,14.67,0,22,0.5c10.05,2.72,15.89,9.22,17.5,19.5c0.5,19,0.67,38,0.5,57
		c-3,0-6,0-9,0c0.16-3.02,0-6.02-0.5-9c-11.19,9.88-24.03,12.72-38.5,8.5c-11.62-6.18-15.46-15.68-11.5-28.5
		c1.72-5.05,4.88-8.88,9.5-11.5c5.32-2.99,10.98-4.99,17-6c7.98-0.93,15.98-1.43,24-1.5c1.6-9.64-2.06-16.14-11-19.5
		c-8.18-1.1-16.18-0.43-24,2c-3.93,2.42-5.93,5.92-6,10.5c-3,0-6,0-9,0C592.17,413.34,598.5,406.01,610.37,403.65z M626.37,441.65
		c5,0,10,0,15,0c0.17,6.34,0,12.67-0.5,19c-11.28,12.9-24.45,15.41-39.5,7.5c-5.39-11.91-1.72-19.91,11-24
		C617.19,443.35,621.86,442.52,626.37,441.65z"/>
</g>
<g id="g80">
	<path id="path78" class="st11" d="M870.37,403.65c20.62-3.62,34.12,4.38,40.5,24c2.46,12.19,1.79,24.19-2,36
		c-8.26,15.44-21.09,21.27-38.5,17.5c-13.18-3.49-21.01-11.99-23.5-25.5c-2.32-11.18-1.65-22.18,2-33
		C852.82,412.53,859.99,406.2,870.37,403.65z M872.37,412.65c16.17-2.31,26.34,4.36,30.5,20c2.93,13.35,0.1,25.19-8.5,35.5
		c-9.44,5.6-19.1,5.93-29,1c-9.59-9.5-13.09-21-10.5-34.5C856.56,423.82,862.4,416.49,872.37,412.65z"/>
</g>
<g id="g84">
	<path id="path82" class="st12" d="M990.37,403.65c21.19-3.96,32.03,4.71,32.5,26c0.5,17,0.67,34,0.5,51c-3,0-6,0-9,0
		c0.44-19.71-0.06-39.38-1.5-59c-2.81-6.57-7.81-9.57-15-9c-9.77,0.89-17.77,5.22-24,13c-0.5,18.33-0.67,36.66-0.5,55c-3,0-6,0-9,0
		c0-25,0-50,0-75c3,0,6,0,9,0c-0.16,3.02,0,6.02,0.5,9C978.51,409.48,984.01,405.82,990.37,403.65z"/>
</g>
<g id="g88">
	<path id="path86" class="st11" d="M1220.37,403.65c20.62-3.62,34.12,4.38,40.5,24c2.46,12.19,1.79,24.19-2,36
		c-8.26,15.44-21.09,21.27-38.5,17.5c-13.18-3.49-21.01-11.99-23.5-25.5c-2.32-11.18-1.65-22.18,2-33
		C1202.82,412.53,1209.98,406.2,1220.37,403.65z M1222.37,412.65c16.17-2.31,26.34,4.36,30.5,20c2.93,13.35,0.1,25.19-8.5,35.5
		c-9.44,5.6-19.1,5.93-29,1c-9.59-9.5-13.09-21-10.5-34.5C1206.56,423.82,1212.39,416.49,1222.37,412.65z"/>
</g>
<g id="g92">
	<path id="path90" class="st13" d="M1527.37,403.65c7.34-0.17,14.67,0,22,0.5c10.05,2.72,15.89,9.22,17.5,19.5
		c0.5,19,0.67,38,0.5,57c-3,0-6,0-9,0c0.16-3.02,0-6.02-0.5-9c-11.19,9.88-24.03,12.72-38.5,8.5c-11.63-6.18-15.46-15.68-11.5-28.5
		c1.72-5.05,4.88-8.88,9.5-11.5c5.32-2.99,10.98-4.99,17-6c7.98-0.93,15.98-1.43,24-1.5c1.6-9.64-2.06-16.14-11-19.5
		c-8.18-1.1-16.18-0.43-24,2c-3.93,2.42-5.93,5.92-6,10.5c-3,0-6,0-9,0C1509.16,413.34,1515.49,406.01,1527.37,403.65z
		 M1543.37,441.65c5,0,10,0,15,0c0.17,6.34,0,12.67-0.5,19c-11.28,12.9-24.45,15.41-39.5,7.5c-5.39-11.91-1.72-19.91,11-24
		C1534.18,443.35,1538.85,442.52,1543.37,441.65z"/>
</g>
<g id="g96">
	<path id="path94" class="st14" d="M1648.37,403.65c4,0,8,0,12,0c0,3,0,6,0,9c-11.68-0.84-20.51,3.83-26.5,14
		c-0.5,18-0.67,36-0.5,54c-2.67,0-5.33,0-8,0c0-25,0-50,0-75c2.67,0,5.33,0,8,0c-0.16,2.69,0,5.35,0.5,8
		C1638.19,409.42,1643.03,406.09,1648.37,403.65z"/>
</g>
<g id="g100">
	<path id="path98" class="st15" d="M1795.37,403.65c7.01-0.17,14.01,0,21,0.5c9.92,1.75,15.58,7.58,17,17.5
		c-5.71,2.23-9.54,0.57-11.5-5c-4.56-3.4-9.73-4.74-15.5-4c-7.53-1.1-13.69,1.23-18.5,7c-1.38,4.4-0.21,7.9,3.5,10.5
		c10.82,4.12,21.82,7.79,33,11c9.66,4.94,13.16,12.77,10.5,23.5c-2.41,7.41-7.24,12.58-14.5,15.5c-7.94,1.53-15.94,1.86-24,1
		c-11.51-2.67-17.84-9.84-19-21.5c3,0,6,0,9,0c1.03,6.86,5.03,11.03,12,12.5c8.36,1.38,16.36,0.38,24-3c6.91-7.16,6.25-13.49-2-19
		c-9.61-3.15-19.28-6.15-29-9c-11.69-4.88-15.52-13.38-11.5-25.5C1783.14,409.11,1788.3,405.11,1795.37,403.65z"/>
</g>
<g id="g104">
	<path id="path102" class="st9" d="M248.37,405.65c2.67,0,5.33,0,8,0c-0.41,19.04,0.09,38.04,1.5,57c2.41,7.46,7.58,10.8,15.5,10
		c9.91-0.54,17.74-4.87,23.5-13c0.5-18,0.67-36,0.5-54c3,0,6,0,9,0c0,25,0,50,0,75c-3,0-6,0-9,0c0.16-2.69,0-5.35-0.5-8
		c-10.84,8.75-23,11.25-36.5,7.5c-6.61-3.03-10.44-8.2-11.5-15.5C248.37,444.99,248.21,425.32,248.37,405.65z"/>
</g>
<g id="g108">
	<path id="path106" class="st16" d="M784.37,405.65c2.67,0,5.33,0,8,0c0,25,0,50,0,75c-2.67,0-5.33,0-8,0
		C784.37,455.65,784.37,430.65,784.37,405.65z"/>
</g>
</svg>
