<?xml version="1.0" encoding="utf-8"?>
<!-- Generator: Adobe Illustrator 26.0.0, SVG Export Plug-In . SVG Version: 6.00 Build 0)  -->
<svg version="1.1" id="Layer_1" xmlns="http://www.w3.org/2000/svg" xmlns:xlink="http://www.w3.org/1999/xlink" x="0px" y="0px"
	 viewBox="0 0 769.83 216" style="enable-background:new 0 0 769.83 216;" xml:space="preserve">
<style type="text/css">
	.st0{fill:url(#SVGID_1_);}
	.st1{fill:url(#SVGID_00000122689045688947677990000001287353834860656575_);}
	.st2{fill:url(#SVGID_00000139255896519107907260000009298094940613159045_);}
	.st3{fill:url(#SVGID_00000067231340541411897660000004763273270711420291_);}
	.st4{fill:#27272A;}
</style>
<g>
	
		<radialGradient id="SVGID_1_" cx="98.0224" cy="102.2946" r="105" gradientTransform="matrix(1.0286 0 0 1.0286 6.6384 2.7827)" gradientUnits="userSpaceOnUse">
		<stop  offset="0.8092" style="stop-color:#000000"/>
		<stop  offset="1" style="stop-color:#FFFFFF"/>
	</radialGradient>
	<circle class="st0" cx="107.46" cy="108" r="108"/>
	
		<linearGradient id="SVGID_00000121252693235754314950000009007980522739245959_" gradientUnits="userSpaceOnUse" x1="207.4614" y1="108" x2="7.4614" y2="108">
		<stop  offset="0" style="stop-color:#FFFFFF"/>
		<stop  offset="1" style="stop-color:#D1D5DB"/>
	</linearGradient>
	<circle style="fill:url(#SVGID_00000121252693235754314950000009007980522739245959_);" cx="107.46" cy="108" r="100"/>
	<g>
		
			<linearGradient id="SVGID_00000170262579987209585740000002511325790097188535_" gradientUnits="userSpaceOnUse" x1="65.767" y1="111.1685" x2="83.1576" y2="111.1685">
			<stop  offset="0" style="stop-color:#A855F7"/>
			<stop  offset="1" style="stop-color:#6B21A8"/>
		</linearGradient>
		
			<rect x="65.77" y="63.17" style="fill:url(#SVGID_00000170262579987209585740000002511325790097188535_);" width="17.39" height="96"/>
		
			<linearGradient id="SVGID_00000095297897665573749110000005112779099160060090_" gradientUnits="userSpaceOnUse" x1="99.0114" y1="122.6998" x2="162.1996" y2="122.6998">
			<stop  offset="0" style="stop-color:#A855F7"/>
			<stop  offset="1" style="stop-color:#6B21A8"/>
		</linearGradient>
		<path style="fill:url(#SVGID_00000095297897665573749110000005112779099160060090_);" d="M159.18,98.65
			c-2.05-4.03-4.92-7.11-8.62-9.23c-3.7-2.12-8.04-3.19-13.01-3.19c-5.38,0-9.88,1.19-13.52,3.56c-3.64,2.38-6.29,5.58-7.95,9.61
			h-0.84V87.17H99.01v72h16.97v-42.19c0-3.47,0.65-6.42,1.95-8.86c1.3-2.44,3.09-4.3,5.39-5.6c2.3-1.3,4.93-1.95,7.9-1.95
			c4.38,0,7.8,1.36,10.29,4.08s3.73,6.48,3.73,11.3v43.22h16.97v-45.84C162.23,107.58,161.22,102.68,159.18,98.65z"/>
	</g>
	<path class="st4" d="M227.21,155.3v-96h36.75c6.94,0,12.71,1.09,17.32,3.26c4.61,2.17,8.06,5.13,10.36,8.88s3.45,8,3.45,12.75
		c0,3.91-0.75,7.24-2.25,10.01s-3.52,5.01-6.05,6.73c-2.53,1.72-5.36,2.95-8.48,3.7v0.94c3.41,0.19,6.68,1.23,9.82,3.12
		c3.14,1.89,5.71,4.55,7.71,7.99c2,3.44,3,7.59,3,12.47c0,4.97-1.2,9.43-3.61,13.38c-2.41,3.95-6.03,7.07-10.88,9.35
		c-4.84,2.28-10.94,3.42-18.28,3.42H227.21z M244.6,100.12h17.2c3,0,5.7-0.55,8.11-1.66c2.41-1.11,4.3-2.69,5.7-4.73
		c1.39-2.05,2.09-4.48,2.09-7.29c0-3.72-1.31-6.78-3.91-9.19c-2.61-2.41-6.48-3.61-11.6-3.61H244.6V100.12z M244.6,140.77h18.7
		c6.31,0,10.87-1.21,13.66-3.63c2.8-2.42,4.2-5.54,4.2-9.35c0-2.84-0.7-5.41-2.11-7.71s-3.41-4.11-6-5.44
		c-2.59-1.33-5.69-1.99-9.28-1.99H244.6V140.77z"/>
	<path class="st4" d="M345.1,156.7c-7.22,0-13.45-1.51-18.68-4.52c-5.23-3.02-9.26-7.3-12.07-12.84
		c-2.81-5.55-4.22-12.09-4.22-19.62c0-7.41,1.41-13.91,4.24-19.52c2.83-5.61,6.79-9.98,11.88-13.12c5.09-3.14,11.08-4.71,17.95-4.71
		c4.44,0,8.63,0.71,12.59,2.13c3.95,1.42,7.45,3.62,10.5,6.59c3.05,2.97,5.45,6.74,7.2,11.32c1.75,4.58,2.62,10.02,2.62,16.34v5.2
		H318.1V112.5h42.75c-0.03-3.25-0.73-6.15-2.11-8.7c-1.38-2.55-3.29-4.55-5.74-6.02c-2.45-1.47-5.3-2.2-8.55-2.2
		c-3.47,0-6.52,0.84-9.14,2.51c-2.62,1.67-4.66,3.86-6.12,6.56c-1.45,2.7-2.2,5.66-2.23,8.88v9.98c0,4.19,0.77,7.77,2.3,10.76
		c1.53,2.98,3.67,5.27,6.42,6.84c2.75,1.58,5.97,2.37,9.66,2.37c2.47,0,4.7-0.35,6.7-1.05s3.73-1.74,5.2-3.12
		c1.47-1.38,2.58-3.08,3.33-5.11l15.84,1.78c-1,4.19-2.9,7.84-5.7,10.95c-2.8,3.11-6.37,5.52-10.71,7.22S350.69,156.7,345.1,156.7z"
		/>
	<path class="st4" d="M427.41,83.3v13.12h-41.39V83.3H427.41z M396.24,66.05h16.97v67.59c0,2.28,0.35,4.02,1.05,5.23
		c0.7,1.2,1.63,2.02,2.79,2.46c1.16,0.44,2.44,0.66,3.84,0.66c1.06,0,2.04-0.08,2.93-0.23c0.89-0.16,1.57-0.3,2.04-0.42l2.86,13.27
		c-0.91,0.31-2.2,0.66-3.87,1.03s-3.71,0.59-6.12,0.66c-4.25,0.12-8.08-0.52-11.48-1.95s-6.1-3.63-8.09-6.63s-2.96-6.75-2.93-11.25
		V66.05z"/>
	<path class="st4" d="M456.47,155.3l-20.34-72h17.3l12.66,50.62h0.66l12.94-50.62h17.11l12.94,50.34h0.7l12.47-50.34h17.34
		l-20.39,72h-17.67l-13.5-48.66h-0.98l-13.5,48.66H456.47z"/>
	<path class="st4" d="M582.05,156.7c-7.22,0-13.45-1.51-18.68-4.52c-5.23-3.02-9.26-7.3-12.07-12.84
		c-2.81-5.55-4.22-12.09-4.22-19.62c0-7.41,1.41-13.91,4.24-19.52c2.83-5.61,6.79-9.98,11.88-13.12s11.08-4.71,17.95-4.71
		c4.44,0,8.63,0.71,12.59,2.13c3.95,1.42,7.45,3.62,10.5,6.59c3.05,2.97,5.45,6.74,7.2,11.32c1.75,4.58,2.62,10.02,2.62,16.34v5.2
		h-59.02V112.5h42.75c-0.03-3.25-0.73-6.15-2.11-8.7c-1.38-2.55-3.29-4.55-5.74-6.02c-2.45-1.47-5.3-2.2-8.55-2.2
		c-3.47,0-6.52,0.84-9.14,2.51c-2.62,1.67-4.66,3.86-6.12,6.56c-1.45,2.7-2.2,5.66-2.23,8.88v9.98c0,4.19,0.77,7.77,2.3,10.76
		c1.53,2.98,3.67,5.27,6.42,6.84c2.75,1.58,5.97,2.37,9.66,2.37c2.47,0,4.7-0.35,6.7-1.05s3.73-1.74,5.2-3.12
		c1.47-1.38,2.58-3.08,3.33-5.11l15.84,1.78c-1,4.19-2.9,7.84-5.7,10.95c-2.8,3.11-6.37,5.52-10.71,7.22S587.64,156.7,582.05,156.7z
		"/>
	<path class="st4" d="M660.28,156.7c-7.22,0-13.45-1.51-18.68-4.52c-5.23-3.02-9.26-7.3-12.07-12.84
		c-2.81-5.55-4.22-12.09-4.22-19.62c0-7.41,1.41-13.91,4.24-19.52c2.83-5.61,6.79-9.98,11.88-13.12s11.08-4.71,17.95-4.71
		c4.44,0,8.63,0.71,12.59,2.13c3.95,1.42,7.45,3.62,10.5,6.59c3.05,2.97,5.45,6.74,7.2,11.32c1.75,4.58,2.62,10.02,2.62,16.34v5.2
		h-59.02V112.5h42.75c-0.03-3.25-0.73-6.15-2.11-8.7c-1.38-2.55-3.29-4.55-5.74-6.02c-2.45-1.47-5.3-2.2-8.55-2.2
		c-3.47,0-6.52,0.84-9.14,2.51c-2.62,1.67-4.66,3.86-6.12,6.56c-1.45,2.7-2.2,5.66-2.23,8.88v9.98c0,4.19,0.77,7.77,2.3,10.76
		c1.53,2.98,3.67,5.27,6.42,6.84c2.75,1.58,5.97,2.37,9.66,2.37c2.47,0,4.7-0.35,6.7-1.05s3.73-1.74,5.2-3.12
		c1.47-1.38,2.58-3.08,3.33-5.11l15.84,1.78c-1,4.19-2.9,7.84-5.7,10.95c-2.8,3.11-6.37,5.52-10.71,7.22S665.88,156.7,660.28,156.7z
		"/>
	<path class="st4" d="M723.61,113.11v42.19h-16.97v-72h16.22v12.23h0.84c1.66-4.03,4.3-7.23,7.95-9.61
		c3.64-2.37,8.15-3.56,13.52-3.56c4.97,0,9.3,1.06,13.01,3.19c3.7,2.13,6.58,5.2,8.62,9.23s3.05,8.92,3.02,14.67v45.84h-16.97
		v-43.22c0-4.81-1.24-8.58-3.73-11.3s-5.91-4.08-10.29-4.08c-2.97,0-5.6,0.65-7.9,1.95c-2.3,1.3-4.09,3.16-5.39,5.6
		S723.61,109.64,723.61,113.11z"/>
</g>
</svg>
