<?xml version="1.0" encoding="UTF-8" standalone="no"?>
<svg
   xmlns:dc="http://purl.org/dc/elements/1.1/"
   xmlns:cc="http://creativecommons.org/ns#"
   xmlns:rdf="http://www.w3.org/1999/02/22-rdf-syntax-ns#"
   xmlns:svg="http://www.w3.org/2000/svg"
   xmlns="http://www.w3.org/2000/svg"
   xmlns:sodipodi="http://sodipodi.sourceforge.net/DTD/sodipodi-0.dtd"
   xmlns:inkscape="http://www.inkscape.org/namespaces/inkscape"
   version="1.1"
   width="1890px"
   height="700px"
   style="shape-rendering:geometricPrecision; text-rendering:geometricPrecision; image-rendering:optimizeQuality; fill-rule:evenodd; clip-rule:evenodd"
   id="svg110"
   sodipodi:docname="LogoM.svg"
   inkscape:version="0.92.4 (5da689c313, 2019-01-14)">
  <metadata
     id="metadata116">
    <rdf:RDF>
      <cc:Work
         rdf:about="">
        <dc:format>image/svg+xml</dc:format>
        <dc:type
           rdf:resource="http://purl.org/dc/dcmitype/StillImage" />
        <dc:title></dc:title>
      </cc:Work>
    </rdf:RDF>
  </metadata>
  <defs
     id="defs114" />
  <sodipodi:namedview
     pagecolor="#ffffff"
     bordercolor="#666666"
     borderopacity="1"
     objecttolerance="10"
     gridtolerance="10"
     guidetolerance="10"
     inkscape:pageopacity="0.17254902"
     inkscape:pageshadow="2"
     inkscape:window-width="1099"
     inkscape:window-height="692"
     id="namedview112"
     showgrid="false"
     inkscape:zoom="0.20899471"
     inkscape:cx="945"
     inkscape:cy="350"
     inkscape:window-x="0"
     inkscape:window-y="0"
     inkscape:window-maximized="0"
     inkscape:current-layer="svg110"
     inkscape:pagecheckerboard="true" />
  <g
     id="g4"
     style="fill:#000000"
     transform="translate(96,112)">
    <path
       style="opacity:0.94800002;fill:#000000"
       d="m 134.5,167.5 c -8.989,-11.304 -16.989,-23.304 -24,-36 0,-26.667 0,-53.3333 0,-80 8,0 16,0 24,0 0,38.6667 0,77.333 0,116 z"
       id="path2"
       inkscape:connector-curvature="0" />
  </g>
  <g
     id="g8"
     style="fill:#000000"
     transform="translate(96,112)">
    <path
       style="opacity:0.97699998;fill:#000000"
       d="m 110.5,131.5 c 7.011,12.696 15.011,24.696 24,36 41.944,63.785 84.111,127.451 126.5,191 0.5,-93.999 0.667,-187.999 0.5,-282 7.667,0 15.333,0 23,0 0,104.333 0,208.667 0,313 -10.006,0.166 -20.006,0 -30,-0.5 -39.899,-59.652 -79.899,-119.152 -120,-178.5 -7.256,-12.853 -15.256,-25.186 -24,-37 -15.3913,-22.429 -30.558,-45.096 -45.5,-68 -0.5,94.666 -0.6667,189.333 -0.5,284 -7.6667,0 -15.3333,0 -23,0 0,-104.333 0,-208.667 0,-313 11.0202,-0.3321 22.0202,0.0012 33,1 12.0234,18.0654 24.0234,36.065 36,54 z"
       id="path6"
       inkscape:connector-curvature="0" />
  </g>
  <g
     id="g40"
     style="fill:#000000"
     transform="translate(96,112)">
    <path
       style="opacity:0.953;fill:#000000"
       d="m 110.5,173.5 c 8.744,11.814 16.744,24.147 24,37 0,51 0,102 0,153 -8,0 -16,0 -24,0 0,-63.333 0,-126.667 0,-190 z"
       id="path38"
       inkscape:connector-curvature="0" />
  </g>
</svg>
