<?xml version="1.0" encoding="utf-8"?>
<!-- Generator: Adobe Illustrator 26.0.0, SVG Export Plug-In . SVG Version: 6.00 Build 0)  -->
<svg version="1.1" id="Layer_1" xmlns="http://www.w3.org/2000/svg" xmlns:xlink="http://www.w3.org/1999/xlink" x="0px" y="0px"
	 viewBox="0 0 769.44 215.21" style="enable-background:new 0 0 769.44 215.21;" xml:space="preserve">
<style type="text/css">
	.st0{fill:url(#SVGID_1_);}
	.st1{fill:url(#SVGID_00000011710931590933053650000007452940062089411255_);}
	.st2{fill:#FACC15;}
	.st3{fill:#27272A;}
</style>
<g>
	
		<radialGradient id="SVGID_1_" cx="98.5471" cy="102.2946" r="105" gradientTransform="matrix(1.0286 0 0 1.0286 6.6373 2.7827)" gradientUnits="userSpaceOnUse">
		<stop  offset="0.8092" style="stop-color:#000000"/>
		<stop  offset="1" style="stop-color:#FFFFFF"/>
	</radialGradient>
	<circle class="st0" cx="108" cy="108" r="108"/>
	
		<linearGradient id="SVGID_00000047057928673078636820000011346005568999350953_" gradientUnits="userSpaceOnUse" x1="8.405" y1="107.6599" x2="208.405" y2="107.6599">
		<stop  offset="0" style="stop-color:#A855F7"/>
		<stop  offset="1" style="stop-color:#6B21A8"/>
	</linearGradient>
	<circle style="fill:url(#SVGID_00000047057928673078636820000011346005568999350953_);" cx="108.41" cy="107.66" r="100"/>
	<g>
		<path class="st2" d="M84.1,62.83v96H66.71v-96H84.1z"/>
	</g>
	<path class="st2" d="M116.92,116.64v42.19H99.95v-72h16.22v12.23h0.84c1.66-4.03,4.3-7.23,7.95-9.61
		c3.64-2.37,8.15-3.56,13.52-3.56c4.97,0,9.3,1.06,13.01,3.19c3.7,2.13,6.58,5.2,8.62,9.23c2.05,4.03,3.05,8.92,3.02,14.67v45.84
		h-16.97v-43.22c0-4.81-1.24-8.58-3.73-11.3s-5.91-4.08-10.29-4.08c-2.97,0-5.6,0.65-7.9,1.95c-2.3,1.3-4.09,3.16-5.39,5.6
		C117.57,110.22,116.92,113.17,116.92,116.64z"/>
	<path class="st3" d="M226.75,158.13v-96h36.75c6.94,0,12.71,1.09,17.32,3.26c4.61,2.17,8.06,5.13,10.36,8.88s3.45,8,3.45,12.75
		c0,3.91-0.75,7.24-2.25,10.01s-3.52,5.01-6.05,6.73c-2.53,1.72-5.36,2.95-8.48,3.7v0.94c3.41,0.19,6.68,1.23,9.82,3.12
		c3.14,1.89,5.71,4.55,7.71,7.99c2,3.44,3,7.59,3,12.47c0,4.97-1.2,9.43-3.61,13.38c-2.41,3.95-6.03,7.07-10.88,9.35
		c-4.84,2.28-10.94,3.42-18.28,3.42H226.75z M244.14,102.95h17.2c3,0,5.7-0.55,8.11-1.66c2.41-1.11,4.3-2.69,5.7-4.73
		c1.39-2.05,2.09-4.48,2.09-7.29c0-3.72-1.31-6.78-3.91-9.19c-2.61-2.41-6.48-3.61-11.6-3.61h-17.58V102.95z M244.14,143.59h18.7
		c6.31,0,10.87-1.21,13.66-3.63c2.8-2.42,4.2-5.54,4.2-9.35c0-2.84-0.7-5.41-2.11-7.71s-3.41-4.11-6-5.44
		c-2.59-1.33-5.69-1.99-9.28-1.99h-19.17V143.59z"/>
	<path class="st3" d="M344.63,159.53c-7.22,0-13.45-1.51-18.68-4.52c-5.23-3.02-9.26-7.3-12.07-12.84
		c-2.81-5.55-4.22-12.09-4.22-19.62c0-7.41,1.41-13.91,4.24-19.52c2.83-5.61,6.79-9.98,11.88-13.12c5.09-3.14,11.08-4.71,17.95-4.71
		c4.44,0,8.63,0.71,12.59,2.13c3.95,1.42,7.45,3.62,10.5,6.59c3.05,2.97,5.45,6.74,7.2,11.32c1.75,4.58,2.62,10.02,2.62,16.34v5.2
		h-59.02v-11.44h42.75c-0.03-3.25-0.73-6.15-2.11-8.7c-1.38-2.55-3.29-4.55-5.74-6.02c-2.45-1.47-5.3-2.2-8.55-2.2
		c-3.47,0-6.52,0.84-9.14,2.51c-2.62,1.67-4.66,3.86-6.12,6.56c-1.45,2.7-2.2,5.66-2.23,8.88v9.98c0,4.19,0.77,7.77,2.3,10.76
		c1.53,2.98,3.67,5.27,6.42,6.84c2.75,1.58,5.97,2.37,9.66,2.37c2.47,0,4.7-0.35,6.7-1.05s3.73-1.74,5.2-3.12
		c1.47-1.38,2.58-3.08,3.33-5.11l15.84,1.78c-1,4.19-2.9,7.84-5.7,10.95c-2.8,3.11-6.37,5.52-10.71,7.22
		S350.23,159.53,344.63,159.53z"/>
	<path class="st3" d="M426.95,86.13v13.12h-41.39V86.13H426.95z M395.78,68.88h16.97v67.59c0,2.28,0.35,4.02,1.05,5.23
		c0.7,1.2,1.63,2.02,2.79,2.46c1.16,0.44,2.44,0.66,3.84,0.66c1.06,0,2.04-0.08,2.93-0.23c0.89-0.16,1.57-0.3,2.04-0.42l2.86,13.27
		c-0.91,0.31-2.2,0.66-3.87,1.03s-3.71,0.59-6.12,0.66c-4.25,0.12-8.08-0.52-11.48-1.95s-6.1-3.63-8.09-6.63s-2.96-6.75-2.93-11.25
		V68.88z"/>
	<path class="st3" d="M456.01,158.13l-20.34-72h17.3l12.66,50.62h0.66l12.94-50.62h17.11l12.94,50.34h0.7l12.47-50.34h17.34
		l-20.39,72h-17.67l-13.5-48.66h-0.98l-13.5,48.66H456.01z"/>
	<path class="st3" d="M581.59,159.53c-7.22,0-13.45-1.51-18.68-4.52c-5.23-3.02-9.26-7.3-12.07-12.84
		c-2.81-5.55-4.22-12.09-4.22-19.62c0-7.41,1.41-13.91,4.24-19.52c2.83-5.61,6.79-9.98,11.88-13.12s11.08-4.71,17.95-4.71
		c4.44,0,8.63,0.71,12.59,2.13c3.95,1.42,7.45,3.62,10.5,6.59c3.05,2.97,5.45,6.74,7.2,11.32c1.75,4.58,2.62,10.02,2.62,16.34v5.2
		h-59.02v-11.44h42.75c-0.03-3.25-0.73-6.15-2.11-8.7c-1.38-2.55-3.29-4.55-5.74-6.02c-2.45-1.47-5.3-2.2-8.55-2.2
		c-3.47,0-6.52,0.84-9.14,2.51c-2.62,1.67-4.66,3.86-6.12,6.56c-1.45,2.7-2.2,5.66-2.23,8.88v9.98c0,4.19,0.77,7.77,2.3,10.76
		c1.53,2.98,3.67,5.27,6.42,6.84c2.75,1.58,5.97,2.37,9.66,2.37c2.47,0,4.7-0.35,6.7-1.05s3.73-1.74,5.2-3.12
		c1.47-1.38,2.58-3.08,3.33-5.11l15.84,1.78c-1,4.19-2.9,7.84-5.7,10.95c-2.8,3.11-6.37,5.52-10.71,7.22
		S587.18,159.53,581.59,159.53z"/>
	<path class="st3" d="M659.82,159.53c-7.22,0-13.45-1.51-18.68-4.52c-5.23-3.02-9.26-7.3-12.07-12.84
		c-2.81-5.55-4.22-12.09-4.22-19.62c0-7.41,1.41-13.91,4.24-19.52c2.83-5.61,6.79-9.98,11.88-13.12s11.08-4.71,17.95-4.71
		c4.44,0,8.63,0.71,12.59,2.13c3.95,1.42,7.45,3.62,10.5,6.59c3.05,2.97,5.45,6.74,7.2,11.32c1.75,4.58,2.62,10.02,2.62,16.34v5.2
		h-59.02v-11.44h42.75c-0.03-3.25-0.73-6.15-2.11-8.7c-1.38-2.55-3.29-4.55-5.74-6.02c-2.45-1.47-5.3-2.2-8.55-2.2
		c-3.47,0-6.52,0.84-9.14,2.51c-2.62,1.67-4.66,3.86-6.12,6.56c-1.45,2.7-2.2,5.66-2.23,8.88v9.98c0,4.19,0.77,7.77,2.3,10.76
		c1.53,2.98,3.67,5.27,6.42,6.84c2.75,1.58,5.97,2.37,9.66,2.37c2.47,0,4.7-0.35,6.7-1.05s3.73-1.74,5.2-3.12
		c1.47-1.38,2.58-3.08,3.33-5.11l15.84,1.78c-1,4.19-2.9,7.84-5.7,10.95c-2.8,3.11-6.37,5.52-10.71,7.22
		S665.41,159.53,659.82,159.53z"/>
	<path class="st3" d="M723.15,115.94v42.19h-16.97v-72h16.22v12.23h0.84c1.66-4.03,4.3-7.23,7.95-9.61
		c3.64-2.37,8.15-3.56,13.52-3.56c4.97,0,9.3,1.06,13.01,3.19c3.7,2.13,6.58,5.2,8.62,9.23s3.05,8.92,3.02,14.67v45.84H752.4v-43.22
		c0-4.81-1.24-8.58-3.73-11.3s-5.91-4.08-10.29-4.08c-2.97,0-5.6,0.65-7.9,1.95c-2.3,1.3-4.09,3.16-5.39,5.6
		S723.15,112.47,723.15,115.94z"/>
</g>
</svg>
